<mxfile host="Electron" agent="Mozilla/5.0 (Windows NT 10.0; Win64; x64) AppleWebKit/537.36 (KHTML, like Gecko) draw.io/27.0.9 Chrome/134.0.6998.205 Electron/35.4.0 Safari/537.36" version="27.0.9">
  <diagram name="Page-1" id="_wWdsOPB9JBCJip_EO-_">
    <mxGraphModel dx="2852" dy="1698" grid="1" gridSize="10" guides="1" tooltips="1" connect="1" arrows="1" fold="1" page="1" pageScale="1" pageWidth="1100" pageHeight="850" math="0" shadow="0">
      <root>
        <mxCell id="0" />
        <mxCell id="1" parent="0" />
        <mxCell id="VBmumWGFU4Ihw89p5VGh-8" value="" style="rounded=0;whiteSpace=wrap;html=1;strokeWidth=5;fillColor=none;strokeColor=#6c8ebf;" vertex="1" parent="1">
          <mxGeometry x="1250" y="210" width="640" height="489" as="geometry" />
        </mxCell>
        <mxCell id="VBmumWGFU4Ihw89p5VGh-9" value="" style="rounded=0;whiteSpace=wrap;html=1;strokeWidth=5;fillColor=none;strokeColor=#6c8ebf;" vertex="1" parent="1">
          <mxGeometry x="210" y="210" width="770" height="489" as="geometry" />
        </mxCell>
        <mxCell id="VBmumWGFU4Ihw89p5VGh-1" value="" style="shape=image;verticalLabelPosition=bottom;labelBackgroundColor=default;verticalAlign=top;aspect=fixed;imageAspect=0;image=data:image/png,iVBORw0KGgoAAAANSUhEUgAAAuYAAAGlCAYAAAC2vTMMAAAAAXNSR0IArs4c6QAAAARnQU1BAACxjwv8YQUAAAAJcEhZcwAADsMAAA7DAcdvqGQAAFz5SURBVHhe7d0PfBT3fef/j5DB2M0f2pLe5Y+DLUs2mJA/srlEODGlVH5YglD0uwr36MXR7+Cki+53eElsfgEXSiHG+WESKVyrVLJpFael+Qm3Ii4gapUSHBs5h624xdiAhILyx/n9GnJV6lyCEUL3/c58Z3d2dmZ3tVppZ3dfTzze+fPd2ZnZf2999zvzLRm/MjwuAAAAAHJqhrlN8J55HzNjyVHOH+X8Uc4f5fxRzh/l/FHOH+X8Uc4f5fxNVzlqzAEAAIAQCKwxBwAAADB9COYAAABACNCUBQB8jI/z0QgAmLySkhIzlhrBHEDRIXQDAMLECe8EcwAFbyJBnNAOAJgK6dScE8wBFKR0AnayMgR0AEA2JAvk3mUEcwAFZyKBO6gswRwAkA1BwTwhlKtpgjmAgpFuyE49bUYAAMgCbzb3C+UaPX8alPNHOX+U85fLcumE8vfdsiQ6rW9jgx3G9XDt2ri8/9a7o8uuXbsWOOhyfvO9A+X8B8r5D5TzHyjnP1DOfwhDOff3jP5uUTfR4aay2PeM+zuJGnMABcH5cHMETcdurRuLd5kWdH8AAJIJqg3XnPH4ec4tTVkAFIBkIdpvXN/Exv1vtaBxAACC+AVxzRvK3bdOMYI5gLzmDcx+YTp2a91Y04nL4m+1oHEAAIL4hXHNL5A7t9FxgjmAfOYNzN6AHbuNnxc0Hn9r3ViceQAAJOOEbM0ZTRrG3eMEcwD5zB2YkwVsPe6e7z9tTcbNd98CAOClvyOcYO1wh+74W3vcPT9ummAOIF+5A7N33JnWN850bJ59tRV7nr4Sy7XofOfWPe6+BQAgGXfodm7dgzZjRvw8Zz7BHEDecodlvyCtR+3b+MG+lFX8tHu5+i9u2lqf+gcAQCoqZtu3rtDtBPEZM2bE3ar/ouPWfQjmAPKVE5q1uBBtjceHaz04AXxs7JoaxqLTOqRb4/qfq7z6z7p11gkAQCrRkO0J3jNKZljjpaX2rTPoMnZZNRDMAeQrd1h2wnRsPDZPD3YtuQ7k1+Tq1av27dhVM9+v1jw22Ou0bgAAiHK+I7RYILduYmFbDU4I16H8utLr5LrrSs20favvkzSY65703hh+0UwFo5w/yvmjnD/K+UtWzv1h+N6bq+QHQy9Y43aYjg/letDBu3zBMjnzyt+pYD4mj+3+U6u8n2cO/b2sWvnbZioY5fxRzh/l/FHOH+X8FUK5z0b+T1lctVpe/e7RaDCPhnNqzAHkIx22HfEhPDGU60EHcx3IR0dHZfTqVXn8S09Ky1fazRoAAJh6Gx9skv/2Xz8ls2bNlJnXzbRqznU4j9asm3IAkJd06E4mFs6dcbHalwMAkAv2OU6xJpbuppQEcwB5T3+YuTkfcM58fev+ANQfiAAA5IJzAYKxa3ZAd39nEcwBFAT7Qy0W0t0fdM58PVwbt8M5AAC5EH9VsFilkUYwB1Bw9Iedc+se3DUTAADkQiyMO5VFznfUNYI5gMLihG4ngDsZPDZtDwAA5IIVyK0h8TK9XJUFQF5yPsTc4+5ah9itXTuhr10+OnpVroyOyltvvSVtf7o/rauynPyHb8q5v2+VGf86qKZSfVyWyLV3lMvtvx2RJb/1O2YeAAA2fVWWT3+qTq6/fpZ1ZRY96OuaO9c4J5gDyEtOGHfGnVDuBHJ7iE17g/lX2/8qZTDXobzkRINUvXfEzElP34/myPjSTsI5ACCODuaf+v3fkdmzr7cvmTjTXDJxhr5s4gyasgDIP04g15ww7nCPO5wy1j9r3CxI4WxvS/qh/PpfE6l9VuTdS+Vj7xmRM89+xSwAACBGfw85FUjR7yfz3RQYzHWPe+mgnD/K+aOcP8r5S7fc+2/9uBmzxX/QxVL4RxavTJiXzIw3h2R0/Dq59rZbRKr/RmTpn4vMfIdZ6jL7XSIrj4v824/LeOls+dnYO+Xamz8wCwEA+Up3+vPyyy+bqUR6mS4zEfo76Lfu/X11m1hxFBjM0+kuW6OcP8r5o5w/yvlLt9z3Lzxv3QYFbvuDT32AfucZM55eML98bZb8y9Vfkyt37ZHR/3leJfWZInd8xiw1Zv+GCuX/IPLOChl/tk5+dvFFuTJ+fZLH6JEm08ObMzT1mEVxdLm75Su6afvgV+RuZzyVnibXupvUWlJxPU66JrI96Uh7fd5jl8VtmKxsHxMAofDSSy9J1d0f9w3nep5epstMhK4p//ujX49+H+mvC2ecpiwACppfQPab52eGjMvsGb+Ukrd+KmNzFlondsqvLjBLlRv+jcgnVSh/x60y/g9r5ec/+6kVylNbIq0DzgfyuLTXmNlByh+UF8ZfkAfVwycN0joc1oocMesdH7hDzqdO5hMXtz1ZkO7+WWLHbqBVJPLpr0husrBnO7N9TACEwp133il9LzyfEM6dUK6X6TITYX/2x8K4HhwEcwAFJfZBFwvg3g++dF0/4y15R+mbUvKdTTL6Rp+M/bhP5Nb7Reb/ZxXKTU3528usUC53/Fe5cdUhketu0NdmkZklo2Yt02jgNTm55A6pMJM6LD6YKvTnsfIH/0AaT3bJYWqpAUwhbzifTCjXnO8n93eTM04wB4AAY+Olapghl6+MyS//6Um50veIyNFVIiPnRFYcU6H8lmgol3ffI2+e2CQlV/+XzLluRK4rGTNrmQCrOYTdTOPur5w3MzWndlbf1kqHnJRIhSrnbQNTs1oF1Yh8OqG62VsL7VMrPeB+bPeCQfnK3U7TEafZjfv+9nhT091qudN0JtV9tMR1pNy/pHy2w3U8Y9uhmcfrCdjnuPs5++Rev57v3U5nH6zCAevwOy4A8oE7nE8mlKdCMAeAAFfGZ8pPr86Vy+M3WNO/vHaDXLv0XZG790abrzih/GfPNknpje+St8+8LG+Ovd0K9cFMoIsLbSrYVUTkA0fsWpOvSZcKfl410j5+RBqd5hwJbWD08gFZ01UxweCntucLIl/TNTZ2+xATMHWQrJCuNQPR2hz/Zjcn5dU7vqaWt6stSPc+flLtX7zBr3xBOpaskRXR5iPu7Yg/nnq/Xq11/2EQtM/6fl2yxmlqdETkC9E7OevXy5JtZ8A6eh6XyAeOmPtP5LgAKBYEcwAIoGu9Z5f80hp085TxWb8qY7XHRN55e0Iov/79y+RtSx+Xt27693JVBXod6oO525jrEKkMnpdXl7TKwyasWc007NEJKpcHX1DrtYJouuFcbc/XHlT3VMoflD9oPCmvDajxwcPSdbJR/iBlw+klssZJx2nfJ1OxP2oqIh+QIy+Y7ba4t0MdT3UEVzvh171flqB91vdz/eFU2yEno3dyrT+ZoHVU3CFLOmo9v0gAyAfu5ivuZi3ZRjAHgAC6nfg7rnvTGnTzlF/50HqR0V/K2LP/XkZ/9S4ZnfF2+dnfNUrprF+RWb9WLj9/YZu8NWQn4YldPGsKqLD5tdYl0nFwou0lBuX8q2Y0lHz+qJk07z43xk6g1UNGVds+61DPyQtq/Gvy6Qn+ogEgl7xtyr1tzrOJYA4AqZRcJzPnf0pm/ewfZeyZpfLmxRdk5H/slZHuVTL6vcMyc+BJ+Ze/WSW//Ee78YlVyz7jsjWetvLb5AMnI/K4CWtWMw17NH09X3E11RiUw10nZckd+lTQCrljiau2uOegZ90npcs5g9LUeFs1zeUrZM2SDldTjjQE3ifVNmSZPp7qEaJ/lwx+Rb7Q4apBD9xn+34T2mevFOsof/AFGVB/NL16fhKPAWBaBJ3oOVXhnC75jT/a+YoZA4rHH279sBnLL7oG0rmNDfa1YWOD3bOaXjY2NiZXr47J6NVRuXJlVC5ffkue2NeVskv+r/1fN8mnP/hDkYX/TU2pB3jbPHnzB6ekZO6HZWxkUK799Iz8yoJ6ufLzf5Yr//8/yg0faJDx19rlhkvfkqdOv08+/cd+nQzpkwT1iYMxS1oH5AXd9ENfg7zWXrKktVU+EOmSOwb0Jfj0fb5gxnWxErGKNR7x1OZ61u1e7lq3NDZKY8ercevW7WY6Ok7ai4+42z/Hr9Ne5t6e+G2z+d1HjaTYhvT2z/tYDp9l+gTMioiK4JquaXeW2WUD9znufoq1HZKw/vjt9Cz3W8fqg7H9t2rUs1XjD2Cq6F+39HXKg0701KH8rrvusr5r0qG75L+/vjbaJb/TLb/ujl93yx9YY14oPQKmU06H8l3/z2G716UU//a0POGaCv5HOf9/lPP/l4ty33rux/L2X/uv5l2QXNjf596eP4Pc+dFVZiw9Y2+/1R4pvV7Gr43KtXf9O7lW+ja57tfvkNI55fK2X7lBxm68SX7x6tdl/K2fyXWlIte9c578y9ivytW3mfsm0Cc4qmfANVih3FrU7pr3oCrnhEB9n1ggrGk3940LrZpn3e7lrnWPt7cnrLu9/YXo8vjVxq/TXubenvhts/ndR89Ovg3p7Z/3sRw+y0zTEfsxE+93x8MB+xx3PzVYCxPXH7+dnuV+63DvP6EcyAv6/RoUyjW9TJeZqOqaT5mxeNSYKzqYq49J2b71I2YOUPjy+XXvfAjGQo4esl9jfvIfviklJxrkY/PUfT64XeRX3is///YjckPF78gN7/wNGfmnb8jM9/+WlMx6h5R8/29l1oJPyc/P/a2cOn1B3r58ryz5rd8xa0K4JKt5B4Cpk3GNOQAUOx2sx5d2yp8NfFSe+vN2+dp/3yp//coM+X+f/hv5s31PyIH/8b9k/9N/K/v3/6U8ffKf5c+fbJOnX7mOUA4AyAg15go15ihG1JinrjEHACCbqDEHAAAA8gDBHAAAAAgBgjkAAAAQAgRzAAAAIAQI5gAAAEAIEMwBAACAEAgM5mHv6S/b5b7U8qQZS65Q9pdy/oqtXKG87qeq508AAKYCPX8mwXXMUYy4jnmXbN+x21oPAADTYfu2TVzHHAAAAAg7gjkAAAAQAgRzAAAAIAQI5gAAAEAIcPKnwsmfKEac/Jk/J3/O+eKPzRgAIF+MfP7dZiwm1cmfBHOFYI5iRDDPr2A+/th8MwUACLuSzWczCuY0ZQEAAABCgGAOAAAAhEBgMA97T3/ZLkfPn/4o569QytHzZ3ErKSkxYwCA6UTPn0nQxhzFiDbmtDHXwdw5lgCA7KGNOQCERW9E5syZYw2RXjMPAIAUCObIiZ7meVIyyx6W7L1o5gK5V20CtT1EZOK5ulci9WdkV/+IjPTvkjO722TILMmKwVZZUlJi1XbrYUnroD1vSauosRhnnqe8Hpp6TBkAQKgQzDHtBvfWSe2Ta+XIlWEZV8PJDTebJUAILN4l/SMqVOvhgEh99QSD9dCAnJGFUlGmxsuapbe3WfRodvRIU0WXrBlwmu8ckUWvD5hlSVS1yIBVXg0DLXJ6pyfEAwBCgWCOaXZRDj3dL7L+Xqkxc4DQql4hDafOy4WhNqlWAb0t4qpF1/OiNevV0mal916JVG6RU9Ip9Xr+J35f7rGCvZqvpqvtQua+5j7u8bQsktvLzah6F7W3T/CdNPC69C26XaKrAACEBsEc0+x78vqLIlXzbzHTQHgNte2WzsW3ya164tQWOb9C16S3SrUVwM/LJqdmvb9Oupt0AK+W1v5dstipdf/a3XK9tSZ7vmzZq+45JG1N3VLX3yvNE65Kr5HVjR1Sq5ukTKQ9St9GqXCastSelpaH+bMYAMJo2oP58A9GQjEgFy5K6z0N0qHG+h5aarcxv2cfP6mHiN97JRdDTqkAXmlqwiu766TfaYqiwvaGaquEaa5iasX1oGvJdc26WeyrrFnad51R96mU7rr2WCjXzV1G0g/pNe2mScrqg3bQTiegxzVlWSNdD9CUBQDCaFqDuf7C/Zef/dK6RFsu/4386y/l4g/+xWwVps/NEnmuUxrVWNWeE1b78vHn1vGTekjw/jTcbcyTtQ93l7MGXZOeXFnFQjOWBTXtVhvzxo6DMqFzOctvl0V9r0saLdMBANNs2mvM57xzttx806/mdJjzjhvM1kwN52ojQL4phvdnVpRVyMJTW2TvhC7Zoq/WInJg5IAs3NIUa1M+kTbm+gor7hrywXNyumqBVFhhu0sOuarBBw91+bcl7zkoHfo+ZhIAEB6BwTzsPf1lu1y2e0BMV9iPS/bLfdaMJVc4+xvucvT8mSm7zfiZetOURQ9Jr96iT/7UqVzXqqv7HlgoWyozuBRj+UpZc7o2dulDfYWWpyIqfNdIu26iUmHmq6Gia40MOCeGxrUxFzlyUt8HAJAroej5U/9Urn+q1rViueTdjmz3gOjUluumGvA6Lk2zGuT0nhNcJjHHvK/7sL4//Ti9VdqXDHQGev6cKB3UnWMJAMgeev5EAdAnh8Y6HuLEUAAAUEwI5giNnualsvEDnfZJoZwYCkw5assBIFxyGMx1kwZX7agzNB83y73s2lS6by9Ux+Wg7g20bZmZRn5J7/3c05xYpumoWQgAQJHLYRtzv7bG9rwO0d21PxbfM+TRzVKyar91mb202ib3v6qGf7LHF39I5EOxy5TRxjyXAtqYD+6TJXcMylbv844pk1Yb8yTvo3jpvJ/1H9ftcvtzsed4cG+dVDzUL43PDEv7ffY82pgn0m3MAQD5JZM25iEL5ooV0HaIOPPNdJ9ZnFYw/+Ifi5y/IGqv7elfXhZZeLvIQ//FmiSYhxDBfNqlDOYp3kfx0nw/JzDhfX2njJtfSwjmAIBClX8nf5aXySJ103f2e2Z6nZy02hzbHdOkpMPED38s8mctIm2P2cOfq/EhFZL3/KkphNApXy5rPrZfagObMmFaZet95H0/J7hFFugrIr46xIm+AICiV1gnf373tMi5CyJ//KiZ4aKDxenXRf5JDQgh3SvoCWl5tSHW/piQnhvT+T4aPCZdL6rbD5Rxoi8AoOiFL5gffVY61E3jqgxOAnxZBYobzM/uSsmsP48bnvirH0jjXX8i23d+1/oZ35nvTGNqnXjuRfnWCZ3Cguhwbq7IogdOBJ1SQe+Dpo+2S8dfDkfnO0PUjTeInErz/ZLi/dzzZbuZWkbvdwAACkxgMM9JD36D++T6VftFPrZNHjYnggVJ93HdSqyWqyVmKjOZPG4yOTnOSi7K6VD+ybp1Ziq5QthfLezlMqIbc5f4v49e3vG7ZkzR7csD3s/W9h3dLLW649H1ndETP73S3Y/p7/kTAIDMhbDnT+eKDfGCT+4MOLnM7ZUzIl9R3/S6LayfBzaIPNwsw3P+rWs7OPlzuvzRzlZznDeaOcgl7+s++v786RtpvY9kkbsnygm+n52TulVoH/Bcr56TPwEAhSr0J3/qL+5o0wU1BIbudHx4oX3ViObPmxkuTZtEPrLIEyYAJJjE+yi997MK8daVltbKETqRAgAgqrBO/tT0pdzKVBj49IMin1HB4r/83yIPqPH5FSIb/7MphFz4w60RasvzxZS9j0zNuq4p59KYAADEKbxgrulQoYe7PiTy7z4i8vBnCOXARGX9feQK5flcUz7UJtVz5sic6BCRXrMoZ/Q2VbfJkJkEAOSn8Adz3RbVunye3X6176GlVhvulF3zL1ogsu4/iPyn36P5SkjoNubbdwa0W0Y4ZfN9NDgkp/XtizukwrkkpmvIq675F++S/pERGdHDAZF6QjEAIAtyGMyXSXs6bcqjHQzFD5Nqiw4gy9J4Pwe8l50h6MosoVe9QhpOnZcLanSordpVk14tbTqtm9rstkisdj24XEQi1fb8SO+QtEXH1XItrrbe3E/9SdDWtEVOndoilWp+tZ7pVy7VdvDHBQDkXA6vypI73u3gqizTg6uyhEvgVVlC9v70M5VXZbl06ZIZ8zf3X7ukukmkvbdZytS0DreV3XXSb6ajeiMy5/AKGdkwINWVW2ThgRFprTbL3OLKdUtdf680X1Dz6s/ILmd8921q/RWyd85hWTHSKtZqdNB2tsM9riJ3xK9cu0iTezv0/MrzssmU641ERFrNfZRUxwEAkNzcuXPNWEyqq7IQzBWC+fQgmIcLwTw4mPt9mEZZgXaLnDKTVrMWJ5T7LdOB2BXkLanKOWHaPW6CdfQ+lgY5oIO1t7xfuf7bZHfcdugAXy+dzjqseQCAbAj6Lgn95RJRPLgqCwqGu425E3StQKxrvM38/l2y2CrskW45P+7HtYaAQJ1WuWpptZatkMNWc5YQnMQKAEUuMJhPVU+EP/vZZatGLGjY8Lk9vvO9w2TKjfzrZWtb3L7UorsgTC3d/U3XVB3nVCjnr9jKeV/3Qe/P6XhfOoP7/ZnufoSm58/FdXKfqRYfOtrtqbV2SbecW1mFLDy1RfYGpWfTzj1lOYf6AyFiNT7XAb1fdi0+IwM0MgeAaRHU82dgMH9j+EUzltxEys27aY68852zrZ+pg/59NrLONRX8bzLl3vmO6xN+Jv/cxvVmLLl09zddU3Gc05GLcropS+P6+81UcoWwv1rYy7lf98nen9PxvnT+ud+f6e7H9y88b8aSe/k7z5ixKVDWLJsW2idg6pMpm84v9K8JT7dcAhWg+3fJmXpzsqYenBM29TobOqVezatuuzW4nJsK8LKl0pSplO66dmmOtrUBAEyl3p6vm7F409rGPKxoYz49aGMeLtl+3U+nnLYxBwAgBdqYAwAAAHmMYA4AAACEAMEc04arsgAAAAQjmAMAAAAhQDDHtNEnf27f2WKmAAAA4EYwBwAAAEKAyyUqU3W5xGJpT31x+Ify4Q/dIQ/+t/9k5vjjconhwuUSuVwiAGBqZP1yiWHvsTDb5aai508delL929PyhGsq+F+Yy82b91753KYvyGuvD5g9D5bt40w5f+mWK5TnIzQ9fwIAkIagnj+pMVfoYGjydCiv/73PyJl//HszB2FHjTk15gCAqUEHQ8ipOxZUSP3vrrCaqwAAAGDiCObIGt12vOvpQ4FNWrgqCwAAQDCasig0ZcmeZE1aOPkzXGjKMrmmLHu/2mnGAADFZMNnGsxYsEybshDMFYJ5dula8RL1T/f06UYwDxeC+eSD+dbPP2im8tMbb7wh73nPe8xU+IR9+9JRCPsA5EIY3zt6m/Y9dWBKgzlNWZB1qZq0AAAAIBHBHFPiwDe+ajVpcdM16NSWAwAA+COYY0pwlRYAAICJIZhjynibtHBVFgAAgGCBwTzsPf1lu9xU9PyZjrAfl8mW8zZpoedPf7kqR8+fAABMv6CePwOD+RvDL5qx5Aql3Oc2rjdjyaW7vnSF/bhMtpy3SUu2jzPl/KVbrlCej+9feN6MJffyd54xYzkw2CpLlrTKoJmckMncF4l6mqSkpMQamnrMvHTwPADIkt6er5uxeDRlwZRzmrT85NJPzRygiOVDuNPbqELrklbXVoZtu802OgE7/ZDdI021p6VlwL7MZnuNmT1RhPSpk/Fzm4F0nkd3GZ73EBiU1iXxrw9niPvMylMEc0wL3aTl+Lf6uCoLUB6RkycjUm4mQ6uqURZ1PSCh/p6rapEB5zr2Ay1yujaNADd4Tk7LIrk99E9Akcvkuc3ERN+P+fL+LWjlEjkZe21UuV4rJyP5/8wQzDEtuEoLipK75q9io/Q580yN22Drklhtj55nLWuSJldtkDeMxN2nZIkJznYNUqxsjzRFl2VqgTy8dZFsfDwxDflug2fbm3pitVrR7XIfj0lvn4cOTDrAqc8Y+5D4PZY6Ltbz0CG1er465scC98VVK+qd1sf7AbWevo1Soe5XCLV0oZbWc6tne95P1lz9XnDKqtfiPvu5bG3S003S4zy31q3fe8/zXP/BI7HXQtx2qHU586Lrd68HU8/vc/AWuaUy4DM14HWUawRzTBv10pc/+erX6HgIRcIOgYuOuGp2zBKL+lJ4YOMiOWJqeo4sel2sd0bfaVnwlLnPkUbpqDVf+EZ55KS9zFruBOdyiWxVZQ+akj0HpaNxq0y68qimXY5IbUKw8N8Gxdl2a7sfEHHGrUClj8frstW538Aa6XrACU9ZUn67LOrTxzHosWqk3V3DdjIiy4P2JSl1vJ+KracQaulCL9Vz6/t+0kGtVtTM6HPcvlStS4Xs11fr6Xb1inDxfe95nuuGd5nC8e/vgZbTUuu8UaLrN+tx/qDAFPP5HLz/Xnn3d/2e12n4PMoQwRzTqv53VyZ0PAQUJN1kQn2ZPxzUhlkHDavm1g7eNe0mJFStkZVOzqtZLY1yWs4Nm2nNXctT2yFy+pz9ZaLLdhy01tVzsEMaV2faeDpezcOumkpH0DY4216xQAUZ17heZjUhMTXVetA111bQmgITeaygfUE4BT23fu+nwUPSJT7vwaD3pd97L+jF4Hl/l69cI1Xm/Re3fuf1j+nh/RysXuD/vB6bxs+jCSKYY1q9612/RpMWwFIj7VZtzWo5aH05xNeM+9IhsqJL1pgTF+Nr4WtkdWOHHOzpkYMdjZKlXK4SR0SeWtMljx8y00m3IQVT62jdzxo8NZaTZYWlBVKhx9N5rMnsC6ZXyuc2g/cTCpDnc1D/QhJkqj+PMkQwx7TzdjwEFCTrp/cuOWRq3AYPddltzB0qFDZZjRp1oBiQlipPzbimf4rVtT3zzLTmqv3xrtOq3a6tldMtD2f1C6Y8slVk48bYYyXZhkDW8dgoabUUyYhpWrA1IuUTeaygfXHVngXuY0hq2ApfGs+t3/tJVsoayfA157z3nJpW73Pt2Q7rNdK4OhTBrtgl/Rx0ntflU/15lDmCOabNH6oPVeeqLN6Oh4DCowKCbrNcYf9U+sDri+JrY9UXu1po/4xaUiFda56SiA7g6stCn2RmN60QOeK+AkR5RLYuii1PXKcKIlVVsiaaJrJF70ujPZpqGwKpdQzoL0yzb3qInqCXIfexKtkpCwacyx+m+VhB+6J/JdBthr3z3fR9G+2fwjn5cwpM9Ln1ez+V2+3D3WWbTlhr9xf03nM/150/sYp6t6NCt2/P+NqbyCrv56Dv8zoFn0dZUjJ+ZXjcjMfRPe6l07lHIZT7o52vyJ6WJ+TN//knZk6wdNZXMsuu3lLH1rpNJszHRZvKcrp7fvVWsAK7Vz7tRzJhLpft1702XeX0z47OrR5uKrtbhgefl2vXrrmGcetWLx8bG5OrV8fkg3fWSN+3/1ouX35LntjXJdt37LbW43bp0iWZO3eumQq296udsvXzD5qpLNFNK/Q5k5lejk13nLNzgQykef833nhD3vOe95ip8An79qWjEPahKEz2vYesy/i94/4czPLzqrdp31MHZMNnGsycYEHfJdu3bZL762vlk3Xr5cSxb8isWTNl5syZUlo6Q0pnlAbXmKfzpakVSjl6/vSXzXK6XXnj+vvNVPImLYWwv1rYy9HzZ2GxTnbSP/ebaQAoNvnyOUjPnwglmrQALuWT67ykpn0SPVkCxWyS7z2ER9znYB4+rwRz5BQdDwEAANgI5sg5rtICAABAMMc0cl+VxYsmLQAAoNgRzItQ34v9crKv30yFA01agOn35ptvmrFwCvv2paMQ9gHIhTC+d6ZjmwjmRUiH8r7vTH8w16FbXyIxCE1aAABAMSOYI1Ro0gIAAIoVwbxI6OYrX2p50hpOqvG+vti0HvTyMKBJCwAAKFaBwVz3uJeOQimnw2k60l1fuqZrf62OEkvMoOhwHp1Wg+lIMUG2ty+d46ybtHzhsf+eVpOW6Tp+XoVSLtuv+1yVe/+tHzdjyd350VVmDACA3Kmu+ZQZixfYJX8x0V2Tj6t/27d+xMyZnIl0yZ8LVhhTYfxzkfR6fcwFHcp1k5Yz//j3Zg6yLduv++nk7ZLfHiRll/yjV0flypXR8HbJP83OnTsnt99+u5kKn7BvXzoKYR+AXAjje0dvU1f30ax0yT979vVWd/xpd8kP5BJNWgAAQLEhmGPapLoqixdXaQEAAMWEYF6EllRVStVHK81UuHGVFgAAUCwI5kWo6mOVVjjPBzRpAQAAxYJgjtCjSQsQEj1NUlJSYg1NPWp6sFWWLGmVQXtpboRhG4pdrp+DsLwGwvj+QN4hmGPa/OHWiBWyM0GTFmCK6RBhQoU9LJHWuETRI021p6VlYFzGB1rk9E5P4JjWEKK2JR8DT8pjnKZUxzofA+FEtzlb+5jOc+IK3NZgpW6vML0/kM8I5sgLNGkBpkFViww4l58cWCNdFU0qbhiD5+S0LJLby9V4eUROnoyIHp1ug61LVDiqlQ4znXeSHeN05fD4T5lc7lOS58R6vdWKHHGWq+GIHEx8zkLy/kD+I5hj2kz0qixeNGlBeA1K6xLz87WlR5qcmre4GrlYbZwdMM38MNakld+uYoZD7U/FRulTcbhWb29lnVTGbbPa/wfU8r6NUqGWL9E76bffptawtUnPyyCQKuWRk1aNZJWZjmPVbGZYC50LccdYSfe14qp9TXwdpXouzHFP9lxY5d3z9OvZno57PO+xdm2XxT0dtw0+z5FT1tza22UPiRXUnn3s/Ik195DffVI9rlfcczIoh7pEWgbapcbM0Wra46fD9P5A/gsM5mHv6S/b5Qq950+vXJWb7HH2NmkJ+/6GvRw9f2ZLuUS2NkrHQfNV2nNQOhq3SqRcf2G/LlvdtXEP2OHjgY2LorVwRxa9LqH7c1PvQ9UCqbAmaqRdh2GnZrFrqcy25jvU/j8VW34yMuC/37qoCievr9bzveFmknSosWo2T6rjbuaFXdwxzuC14rvM77nYKIuO2GUGWk5LrZNag56L8ohsbewQ5+Vsv55XW2WsP4zM440fWSQbH08nPgbsm1maILpd+jHU+8rbLMS7jw3vCrjPBB9Xcz8ng4ekq8/UgieVB+8PhE5Qz5+BwfyN4RfNWHKFUu5zG9PrBTPd9aUr7Mcl2+Ume5y9TVrCvr9hL5ft132uyn3/wvNmLLmXv/OMGZsCNaulscP+ibvnYIc0rlZfq9bP26YWTQ+6Vq1PhSerVk7Pt2vFEmvgckSFAl2jZ23rzgUykOnP8UH7rZepcPJwtndWb7cVdPIgzAQd40xeK+m8jvR6Xce8fOUaqTKv02TPRc3q2B+aPQdPS4tTUP8B5GxjbYfI6XPJg66W7PXgx71dFQv8fx3x8rtPuo+b7HUf/cMpi6b7/YFQ6u35uhmLR1MW5B2atCCcamS1VcvYIwc7GkXncov6orVq0aKDDk810m6Nr5aD1pdzSH62drZV1/4lC07p8N3vKaIe64i7JjjMkh3jCb9WpvB1VPOwtJzWAV69nk+vkZU6qepQXtEla/QJjvpxg5oU+ZnO14NbOo8b9JzoP3z6uuRQyr88MpCr44HQI5hj2kzmqixeXKUFYVTzcIucrq2V0y0P21+y1hf7Rkn4tV8FnCarUakOVgPSUnVazk3Fl3+m9MlrRyRaE5s2J9QE7fcUqoiclCNSa7ffzQfeYzyR18qwvSjp6yjguRg81CV9pllKcuWycs1pOdh0UE6vWemqQTYhXbHWZY/GuIJtdPlUvR68f9h4TfRxE173NaLe0rLRc4JuT1OGfwBN5P1h/TKR4eMgrxHMkZe4SgtCqXylrKmqkjVOctGBaUCHdfOTtR70SWHqi1l925t5FdK15qnwtYuuabfbI6dzwpxm2iXrn+eXtFb477cpOhnWyYfWT/9284OmE2aBUtN+RBap45o34TzuGE/gtTLP3D/odZTkuajQbdLb06ub1c1eTneIbHVenHq9i2LNPh54fVF8jbla/pS1P97lAftmLcuQex/NyZ+JMnhcz+tet6m3p2PrqJV0/rDxmKb3B/JfyfiV4XEzXrT+aOcrMq7+bd/6ETNnckpm2Z+a6that7DpEG0f5+zUmmsLP/TbVu25DuqYmGy/7qeT/unXuY0NIteuXXMN49atXjY2NiZXr47J6NVRuXJlVC5ffkue2Ncl23fsttbjdunSJZk7d66ZCrb3q52y9fMPmilDXxVkMm2zp9m5c+fk9ttVuAupsG9fOgphH4BcCON7R29TV/dR2fCZBjMnWNB3yfZtm+T++lqZPft6mTVrpjXMnDlTSktnSOmMUmrMkd9o0oIwsU763Mr1iwEAmSGYI6/RpAVhUtM+Lmm2EgAAIAHBHHmPq7QAAIBCQDDHtMnmVVm8aNICAADyXWAwD3tPf9kuR8+f/vKlXKomLfmyH6lkuxw9fwIAMP3o+TMFev70l81yOjQ3rr/fTCWXyeMma9KSi/3Vwl6Onj8BAJh+9PyJokCTFgAAkK8I5igoXKUFAADkK4I5Cg5XaQEAAPmInj8Vev4sPDqU6yYtZ/7x780ceNHz5+R7/lxTd5+ZAgAUg6nu+ZNgrhDMC9P2nS1Sov7pyzQiEcF8CrrkzzN0yT/16JIfyAxd8gNTTLf71mF5utCkBQAA5BOCOQoaV2kBAAD5gmA+hXSTFobYoGvLda2537KpGhZ+6LetGnO/ZUEDAABALgQG87D39Jftcrnq+RP5Keyv53TL0fMnAADTL6jnT07+VPL5JDggU5z8ycmfnPw59Tj5E8gMJ38CAAAAyBmCOQAAABACBHMAAAAgBAjmAAAAQAgQzAEAMT1NUlJSYg1NPWZemA22ypIlrTJoJpGG6T5m3tdUstdYvr3+Usnm/oTlte7dJ96DWUUwBwAYPdJUe1paBuwr3bTXmNmho7YzH4OADjAm0EwqrIUhCKW9Dd7XVLLXWL68/tKVhf3J1nOd8NpbIq3elboCtzX4vjhd+zTQIqd3erYtDK/NPEcwBwDYBs/JaVkkt5eb6RAabF2iQkOtdJjpvFPVIgMqpOmgZgWb2gzCeXlETp6MSIifphjvayrZaywPXn8TErb9iXvtrZGuiiYVs23W+6pW5IizXA1H5GB0eZR7n/LpdZhHCOYAMGmD0rrEHbB6pMmpkYqrqYrVUtkB08wPRQ2T2uaKjdKnIm9tym3S++fsUxZ+op+A8shJK9BWmek4Vo2fT01gWOlg4651TPe14tRKmtvWJr3MhKyAdcTNt55nP57ndZ95HLPUWoc1rV7vD6h19G2UClVuiX6QuMd1Ap/3NdUk/yHwNeYpW1knlenum2e7446RKRHbdjPuXY9Zbj+ePcS/n93zk7zfo7z7brYpuh7XPkUfNxaUbZ7j3PkTa+4hv23026dkym9X8doxKIe6RFoG2sVdqV/THj8d9BzFHirV68LvWHv3GYHBPOw9/WW7XKH0gEg5f5TzR8+f2VIuka2N0nHQfMX0HJSOxq0SKddfZK/LVnct1QP2F/QDGxdFa6eOLHpdBux75lCNtOvA69SqBdaE6VBiVa1Fa9ZC0eRAf9lbm3VSHXczLx/ogNSnn/8MXysqBL2+Wi/TISpgHSZQLXKeM98/bHye16VmUQL1en8q9lo5GRmIW/9Ay2mptRKj9zXVLn8V+BrzlO1aKrPT2jfPdvvum1vQepTo46nhiHo/W38w+b3eg97v9qTNu++3y+O+x0iJ2083z3FueFfANibZpyB6m6sWSIUeHzwkXX3p1Oz7PEdmic3vdZHqWHv3uXgE9fwZGMzfGH7RjCVXKOU+t3G9GUuuUPaXcv6KrVyhvO6/f+F5M5bcy995xoxNgZrV0thh//Tbc7BDGlerrxvrZ19Tu6QHXdukQ5hVW6Xn27VFiTVTIaa/xKVFHg7TBqsv+QorAOTxl3ymrxUVgqLPRdA69Hx3OT+TeV496y9fuUaqzHthUtLZN/Xv9b5G0W+3tASuR3E/XsUCO+AHHRe/93syyY5RqufGzXcbk+yTm36fOGV2LpAB9x9GTkjPpnSPdZHq7fm6GYtHUxYAyIoaWd3YIQd7euRghysoqC8gq3YpOuhgVSPt1vhqOWh9afFz7qSoY3zEXQOZT6zAZkJRNl4rvusoENnat6ysJ+D9nivp7JNTRtd6u4O79atNlxxKWsWeoUJ+PU4RgjkAZEnNw/pkvlo53fKw/eVjfeFtlMe9SWqwVZqsxpY6dA1IS9VpOTcVX4pToXylrBGffcqxishJOSK1drvWvGGamGyNSPlEXivD9qIEQevwBK/BQ12S0MY86Hl1BbiE+znLPI9rlWtcnd0AFrRv6k+aBVU6IJtJN79tD1xPgCSv94T3ezKTOUbuEO1nwvsUkZNHRJxfYfRrS+2KbHSdDKr1NGVYYRDwuvClm6BRMRGHYA4A2aK/xKuqZM1K5wdiu02mvvKG9VOuHvTJUuoLS30LmnkV0rXmqTxqF223I3Xv03RWVFsnQlo/ids/yzedMAuUmvYjskgd11CHc7Pd9rHbKQsGnDb6E3itzLPW5CNgHXr+kUVqNfa8B15f5NMO2+d5HYjIU/qXCDMddz8V7rY22s0UlrRWxD1uhW4Tn/UTD4L2zbPd+rWhi6vt89/2oPUESfJ6T3i/JxP/uGkfI/dxNid/JproPik17XY7d3NCpj6p2p6OraNWMvjjKsnrIq3tgpSMXxkeN+NF6492viLj6t/2rR8xc4DCl8+ve/2TqHMbG0SuXbvmGsatW71sbGxMrl4dk9Gro3LlyqhcvvyWPLGvS7bv2G2tx+3SpUsyd+5cMxVs71c7ZevnHzRThr4qiLftZoidO3dObr9dBb+QCvv2paMQ9iGv6BrYB0Semo73YJ693/NNGN87epu6uo/Khs80mDnBgr5Ltm/bJPfX18rs2dfLrFkzrWHmzJlSWjpDSmeUUmMOANlinQSmmyWY6fzWE38JuuiQxqXYgCJQWO93hAXBHACypKY9JJcOzIoac9Khd8izyxGiuOj209NUg11Y73eERdE3Zfnhj34i+zpfUV82V+U3l/5bMxfJzL5+lrzvvb+hhneZOchHNGWZgqYseYamLFOPpixAZoq1KUvRBvM3f/4L+eah5+XC0I/MHEzY+NtVEtJnIc20p5FXvvXc/ydL7/k3BHMPgnl4EMyB4lWswTywKUvYe/qbTDkdyv/0yW8Syier5E0Zn/G6jMsV2dPyhFX7muof5fz/5aKcDuUdT37GPJnJhf19nvuePwEASF9Qz59FWWP+F994NhrK3/62G2X+7fPkxhuvt6aR2i9+8ZacPTds/YGj3Vr2XvmPv3evNQ5MB2rMs4Ma86lHjTmQmWKtMS+6YG61Kf/aIWtch/Lmxjp1cGZZ00jf5ctXpK2jOxrO1316JW3OMW0I5tlBMJ96BHMgM8UazIvuqiw//NE/mzGxasoJ5ZnRx00fP4f7uAIAAGDiii6YX37rihkTmq9Mkvv4uY8rAAAAJq7omrJ869vflRPffsUaX/qJD8tvfoLePjPFsUSuhKUpy5q6+8wUAKAY0MY8ywiT2cOxRK6EJZjnextzAMDE7PziV2hjDgAAABQ6grnH4N46KZk1zzNslh5r6XFpUtNL9l60puJ5l9nTieuaJ01HTREAAADAIJi79DTPk4qHRFpeG5bxK85wQlo+dlbODZpCE1S154RrXcMysKdSOlbVSWuG6wMAAEBhCgzmYe/pL+vl3rtIdj6pg3SLRMrNTMvNEnmuOzrvL+yblN4z77NmLF557Uqpkn7pOmLXrBfK8ftSizp4aSiU/aWcv1yVo+dPAEA+Cer5MzCYvzH8ohlLrmDK7Vspfep20W032zMC/Edzm8obw182Y/6cxymU4/e5jevNWHKFsr+U85erct+/8LwZS+7l7zxjxgAAyJ3enq+bsXg0ZXGUl0uVuul45rg9PUV6vrxD/QGwVlZzlTUAAAC4EMwd5evkqT2VIk822CdpNmcnoPc9tDTuxM/aJyul5bXHpMYsBwAAADSCuUv5hu7YSZrz97oCtXNVlonznvx5ZH2/bLyDK7MAAAAgHsE8QDSkP7NWTe2Xnb6XSJy4mrZOaVS3U91kBgAAAPmFYJ7KffdaQbrv7PfsacU9DgAAAGQDwTyVwSE5rW6q5t+i/r9MVuuLj7w6JAmXIT/6rHSom1RXdYlfHwAAAGAjmDuObvZpS35RWv+TfRWVrRvswF3z2W1S9eIOeSCuactxaVq1X+Rj2+ThpFdbSVwfAAAAoBHMHfc1ScvH9kut6woqJbOWykbZJgNXXFdRKV8nJ690yqK4q600SMf6Thl/bp3E9U2kxF+VxWd9AAAAgBIYzAulR8D0y/2eRJ6LXT0lOnjCtr2+ZdLuLde2zC5gvGfe5sQyevBdX2phL0fPn/4o5y/b5ej5EwCQT+j5MwXK+Uu3HD1/+qOcv2yXo+dPAEA+oedPAAAAIMQI5gAAAEAIEMwBAACAECCYAwAAACFAMM/YcWmaNU+WZKmrfgAAABQ3gnmUHbRj1xx3Dffsk0FnefNxUx4AAADIHoK5R9WeEymvPQ4AAABkW4kKnuNmvCh869vflRPffsUaX/qJD8tvfuIj1rhdY94gp1UwP5lWd/kTLV94go8lMLXGx+2PLX0bG0SuXbvmGsatW71sbGxMrl4dk9Gro3LlyqhcvvyWPLGvS7bv2G2tx+3SpUsyd+5cMxVs71c7zRgAoJhs+EyDGQsW9F2yfdsmub++VmbPvl5mzZppDTNnzpTS0hlSOqM0OJjrHvfS6dwj38oFhcn3zPuIfPLH/zNJ0LaDeOc73iVvXXopOu0tP7i3Tioe6jdTa+VIiu73g/fDWX+nrHm6QTaaIrpGP/Z4dpkOM2W7UT3m6+Yx/dchH9sm7xr+qmyZ95OA9dpS7Yv7WL700kvyt3/zJ9Z4MmF5HQShnL+wlfMG85vK7pbhwedTBvMP3lkjfd/+66wEcwAAgqQK5p+sWy8njn0jIZgHNmVJ50tTK5xyXzZjyd257WkzlsgOsiItr9lNYI6s3y+1Vvv0YKm2r++hBnl9i2lS88xaNb1RWl0rXP2MWWaGI+t/IbWzNkuPWa551yEv7pCf/PgmkT8z817bJvLQUmk6au6gTHRf6PnTH+X8ZbscPX8CAPIJPX+mqU8F1ISTP9M64fO4PP5Qv1TtaZGIaZBe89ltUqVC8OMm8Oqwm7DuuKEuLnRruia7/T4zcd+90ij90nXEuRLMMqlxlhk1q1TwlrNyzrWexHXoebHtlPIyWaRuTp931pt6XwAAAJBdBHMP35M/25aZpUkMDslpdbPoNldzEBN4HeUbuhPXHTd0x8LyBMQF/lX7zdxJSGNfAAAAkF0E82wZHJQ+ddOxyl0Dbrf/jtVEZ5tuQz4vrsmJ1VRlsnKyLwAAAMWNYJ4t5eVSpW4aPW2+9eCcVJlJU5akjj6rwnKlCuWZ1bQHSmNfAAAAkF0E82xJaKedaKqasmRdGvsCAACA7CKYZ80yeXhPZcJVUwb3bp5YLfhEWDXb7pNBj0tTNtqY52JfAAAAihzBPIt0jfjAHpGNd8Sap1Q8XS4rp6oWvHydnLQuoehcSWavLNiThTbmyrTvC5Bnli9fPuEBAIBk6PmT3iozxrFErng7GLKH6e35Uwdt3bFWuu666y45duyYmQIAFLJMe/4MrDHXPe6lg3L+iq3cl1qeNGPJFcr+Us5frsq9/9aPm7Hk7vzoKjMWUkNtUl3dJkNmckImc9+pFNbtAoAcqq75lBmLFxjMC6VHQMr5y3Y5ev70Rzl/2S4X1p4/f/CDH0hNTY383d/9nZmTplyF2XwP0e7t5w8CACFGz58AMI10KG9sbJRbb71V7rnnHjM3TWXN0tvbLGVmctrk6nGnQiHtC4CiQTAHgCxzh/LHH39cbrjhBrPEh67ZnTNH5uihcouccuaZ2t6htmp7mR70PGtZRCLVZp4aIr36TjFx95lTLW12FbK0qfvEyvZKJLrMcB7X3LZFgh9DS9g2a65er+t+L1gz5ajfutz77myLZ/8ivfZ2u+8XuH9N6vid2iKVan71zp3RY5iwTT77AgBhQDAHgAzpJiq6qYoO4o4JhXIdGFUYX3hgREZG1NC/SxabJRYVUpu2LJQDepkaDiw8Lxf0/FNn5LZ2c58DDdJZH1Friilr7rWXWcsXypa9emmZNG9SZQ+bkr2HpbNhkzQHVSmrgHt+hesxdjsh1/DdNh2i60XNjD5+692qrO+69L6fl02m3Eh/nXQ3mcdw9s/atyYRZ9xsQ+D+tavjt3iX9Kv5vb//63pNis82VZtFABAyBPMM9TTHLiO4ZK+3Ix67q/zE+WGVb9sLhINuoqIDuA7iOpBPLJQrQwNyRgXJDUFBsaxCFkqn1M+xg3d1a6tYRRfXyX1OoK5eIQ1yRgZifxtYoTlaE13fKXJmwA68umznYWtdvYc7pWFFkoTq3q5bb4v/g0Hz27aho9ItPvvjty6979b9zXbqXwtOmT88nP3TZd3jepkWtH9+grYJAEKIYB5lh1MnbMeGzdJjSjh01/q1T66VI6bHzpMbvmfft/m4KeEVluB7UVrvIYAD2aKDtw7gTjifUChPS7W0WrW8K+SwFUTja8Z96dBa2S11/aaGOK4WvlpWNHTK4d5eOdzZIMlyeWoZbJuXqd2O1n6PmD88kkm6fwCQ3wjmHlV7Tri6yD8hLR/bL7Vx4fyiHHq6X2T9vVJj5uSNo+2yMb2LXABIkzucTziU61rnU91y1FT3Dh3tttuYO1QIjVgNqHUI7pddiz0145pukqJrlW8y05qrRt27zuoNu+RMfb2c2bUhdQhOxm/b5D6pky1itSxJxdr3NMt6Jdk/cWrdHWUT2CYAyDGCeVI3S+TPtkmV7Jed0Vrm78nrKtxWzb/FTGvLpF0H+bZlZjpkBvfJEl2jn5Xu+gF46SD+x3/8x9YwsZpyFWp1G+lKu1lG0/mF8bW/KryqhXaTjTmV0l3XLs06gJsTHO2mHCIH3FcfKWuWTQtjyxPXqYLq4sVSF20LkyG/bSuz23mfqTfbpgbn5M9Eat/748vGTiBNItn+6WUNdvOY6r/8qTMzcZsI6QBCip4/o71V6uYmDXJ6zwk5ueFmM0/RofaOHSLWfJHWe5bG1zp/bJsMPFcmj8fd170u3cylQTrs0oZuBvOYVeOum8VUPNRvz3bNd6/jKdloyriXZyJgH33mR7drfWfgHxz0/IlcKeqeP3VTDn0+ZKaXAuyNyJzdt0k/lxIEgClDz58B0i/3WTPmMTgofepm0W06sN4su4d/TRrVWLTJy3PrpFyX8/gLc2vXpnfG3yculL8qLa/ZTWeOrN8vtffsk0Hrfra+h5bKA9Ii7373u6P3SyYrx+XoZiuUNz4zLO8+vNnMTI6eP/1Rzl+2y+Wq508dttMdwsI66XMToRwAcomeP1N4Y/jLZsztuDTp5h/rO6X9PnuOf7lE/9HcBjsuj6vwW7WnVyIm2dd8dptUvbhDHj9qT2s6zOtabPd+6ECfeJKqPfz4xz9Wt3XS6k73PgKPiwrlusmLDuV6n9M9fvT86Y9y/rJdLhc9f+ra74kOWTHJjnOqW7lcIADkGj1/pknXUMeC7l5ZoGuzp6Lt+OCQnFY3dk28UV4mi8xoMuUbuk3Ne9DQHQ37E3K2XZasOmvV4Dt/iAAAAGB6EMw9os1NXtMnffbLxi8HXQJxkkwTmY5V7hpvuy366fO5uZxh35P71Tb1S9cRLqcIAAAw3QjmQcrXycln1oo82TA11/0uL1fBX6wmI94a7/gTMxMla8piD6mbsvix/ihRf5DIQ0ulydWcBgAAAFOPYJ7MfY/JkfV285asB1XTbCWT2vEpa8qiqT9IntpTKR2rMgv3AAAAyAzBPIWaNt3JkG5yktgDaPqWyWod8J8+5rriyjJ5WAXgvoc2xgXgwb2bcx6IdfA/sr5fNt4xmX0GAADARBDMU4p1MlSbYRMRraatUxpf3CEVVlMTO/DqADywR1QAjjVDqXi6XFZmWtsdxOlgyLRhd05wTdZEx9reSe4zAAAA0kcHQ3SKkzGOJXIlDB0MAQAQJNMOhgjmhMmMcSyRKwTz/LF7d+IxBoB8tmnTJjMWLOvBXPe4l07nHvlWLihM5tt+BJnOcu5jqbsm/9u/+RNrPJl83l83yvmbrnLeYH5T2d0yPPh8ymD+wTtrpO/bf00wn0Y6mD/66KNmCgDy2yOPPJKVYP7JuvVy4tg30u+SP50vTY1y/oqtHD1/+qOcv2yXy0XPnwAAZIqePwEAAIAQI5gDAAAAIUAw9+hpjl26cEp6/Jy049IU2m0DAABApgjmLrqr+9on18oR04Nmqq7xp9ZFab2HAA4AAFAsCOZRF+XQ0/0i6++VGjMnp462y8b0znsDkAPVc+ZIdduQmVKG2qS6uk1ccwAAmBCCedT35HUVhKvm32Kmc8TppXPVfjMDQCgtbpCF3U3izuYAAEwGwdyim43Ed1dfcs8+mUhP9LoZjNM23Rqaj5slE1S+Tk5aTWl0l/jpiT52po8JIAO3yYZNC2XL3l4zHTPUVi1z5swxQ7Ud3q0a9YhEqu35kd4haYuO2/ezynjvF53vmgYAFCSCueVmiTxnB+GqPSes9uXjz62TcnthSjoYVzwk0vKa3TbdCtWvDk0o2Gfs6Gb12P3S+Ix63LZlZiaAaVHdKgekPhasjbLmXhkZGbGHA67wfuqM3Nau5zVIZ32TiDO+WzeB6ZVI5XnZ5Nyvv066m2gaAwDFJDCY6x730lE45T5rxpJLXN9xeVwF46o9LRKJJvll8rfDT1jBPqEmPWGokNY0ErzvfqhQrpu86FDefp89K1fH70stT5qx5HK1fZTzVyjl3n/rx81Ycnd+dJUZy57qDbvkjBWsXdw13/WdImcG7OWL6+S+MnV7622y2D2ulw0NyBnplHrnfpVb5NSp83JBLytrlt6RXmnW5QEAea+65lNmLF5gMC+UHgHTL/dlM5ZcwvoGh+S0ull0W/wVXJxy5Ru6TS160DDgCvTBEh73bLssWXXWqqV3QrmW/eOSXjl6/vRHOX/ZLpfTnj9VaG6v65a9R820DuWV3VLX79R877KDdzoW75J+p8bcGlql2iwCABQOev6cKoOD0mdGp1Pfk/vV4/ZL1xEupwjkWlnzJpEtW+SUmY7WjCtDR7tj85Mpq5CFp7aIT5N12pgDQJEgmE9WeblUmVE/qZuy1KXVlMXLagv/2jaRh5ZKk1NTByBHqqX1QIM9WtYsmxZukUrTJKXp/MI0a8zVOvp3yZl605RFD1x+EQCKCsF8ssrLZJG6OX3ev+Y6dVOW7rSasvgqXydP7amUjlWZhXsAmevtbZa4Jt/VrTJi5lW3xpqj9La22mV1O3HnPsnG3U1Z4ubTxhwACh3BfNKWycMqHPc9tNEVjo9L0wQvt5gpHfyPrO+XjXdslh4zDwAAAPmHYJ4FOhwP7BEVjp3mKQ3S8YGytC+3GMfpYEivQ00611VP1jV/TZu+1ON+qc2wWQwAAAByj2AetUzarwzLyQ3xV1dJV0KTlUyvKR7tYCh+iG2X33ba8ybVLAYAAAA5VaJC37gZLwrf+vZ35cS3X7HGl37iw/Kbn/iINZ5A11zfsSPFFVcqpeW14g3DaR9LIMvGx+2PLX0bG0SuXbvmGsatW71sbGxMrl4dk9Gro3LlyqhcvvyWPLGvS7bv2G2tx+3SpUsyd+5cM4XJ2r078RgDQD7btGmTGQsW9F2yfdsmub++VmbPvl5mzZppDTNnzpTS0hlSOqOUYE6YzBzHErlCMAcAhFmmwTywKUuh9AjoLTf7+llmTOQXv3jLjOXffgSZznLu4/fF3V81Y8nl8/66Uc5frsrlsudPAAAmKqjnz6KrMf/hj34i+752yBp/+9tulObGOvVXSyysIz2XL1+Rto5uefPnv7Cm1316pbzvve+yxoGpRo05ACDMaMoyAX/xjWflwtCPrHEdzuffPk9uvPF6axqp6Zrys+eGo6G8/Nb3ye/fT8fhmD4EcwBAmBHMJ0AHyj998psqYF42c5CpG2+cLf9l/e9Yf+AA04VgDgAIs0yDeVFeLlGHSB0mby17r5mDTOiackI5AABAdhRljbmbbnP+wx/9s1x+64qZg1T0CbTve+9v0KYcOUONef7gcokACg2XSwQAF4J5/tDB/NFHHzVTAJDfHnnkkSkN5vT8CQAAAIQAwRwAAAAIAYI5AAAAEAJF1/NnEMr5o5w/yvnLVTl6/gQA5BN6/gRQMPL65M/eiMyp77RGGw6MSGu6fXMNtUl1k0h7b7OUmVmTNhXr9ODkTwCFhJM/ASCEqufMkTmuIdJrFiTVK5H6M7Krf0RGRiYQyr10oK5ukyEzGZUwf0jaqqulLaEgACCMCOYAkInFu6RfhWsdsEf6d8mZ+jTC+dCAnJGFUjFV1dNl90mddMtRJ4gPHVVTdXLfVD0eACCrCOYAMFllzdKrw/luU1uta66jtelOjXWvRCq3yCnplHo9v7pNTrRVu2rdTTlvrbdfLXiTWs+pLVKp7lcdVx1eJvfViXQ7yfzCeZG6+6xmKkN+j+VI9pi+++LMpzYeALKJYA4A2VBWIQtPnZcLVgA/L5uitel10t2kQ261tKrwvtipae9tlqXNvXYZPRxYKFv2ptMepkya22Pr6W2Orw4vq1gop85fsMZ7D3fKQlM9X5bRYwXtCwBgKhDMASCbrOYqplZcD7qW3ArsPty10fqE0DMDkw+91SukofOwitRDMnCmQVY47dgzeaxk+6J/JRjpFc/fBQCASSCYA0A26BC7+Da5VY+7259bQ6sknOepg3Jlt9SZE0F1O/XFZtHkVMuKhjMy0HtUuheusB93Mo+Vzr4AALKCYA4Ak2a3H1+4qVnKrCYtWyStliKLYydmDh3tllP2qIirhj1uvltQLbxSvWKhbKlX2xOtLleCHsvh95jJ9oU25gCQdQRzAMiEOfnSPilyt9zW71z+0G5Lrq/SYi9TQ9zJm0ZZs2xaGFtH0/mFdi22mt++60y0+Uh0vpu+b4PdxCT+5E9DN2dR/6K5POixHIGPmea+AACyIrCDId3j3hvDL5qpYJTzRzl/lPNHOX9B5bwdDN1UdrcMDz6fsoOhD95ZI33f/uvcdjBUZOhgCEAhyVYHQ5+sWy8njn0joYMhev4EkHe8wdwe8qTnzyJDMAdQSOj5EwAAACgCBHMAAAAgBGjKAiDv0JQlf+imLABQSKayKQvBHEDeIZgDAMKMNuYAAABAHiOYAwAAACFAMAcAAABCgGAOAAAAhEBgMNc97qWDcv4o549y/ijnL91y77/142YsuTs/usqMAQCQO9U1nzJj8bgqC4C8w1VZ8geXSwRQaLhcIgC4EMzzB13yAygkdMkPAAAAFAGCOQAAABACBHMAAAAgBAjmAAAAQAgQzAEAAIAQIJgDQAaq58yROa4h0msWZNtQm1RXt8mQmfTlLpNOeQBAKBHMASATi3dJ/8iIjOihf5ecqZ+icF7WLL29zVJmJlOaaHkAQGgEBvNC6RGQcv4o549y/sJeLuc9f+owrMP5bletdbQ2vVraTPX1UFt1rJY9WqvdK5FoWRXuv27XeLdF9HREep0acOs2IpFqV1nrD4EhaWvaIqdObZFKNa9658742nNT1lqXMy+6fvd6zDLX9gIApkZQz5+BwfyN4RfNWHKU80c5f5TzRzl/6Zb7/oXnzVhyL3/nGTM2BcoqZOGp83JBB+3K87IpWpteJ91NdrBu2rJQDpj5BxbqsipUV9eLmmmXVUPr3WpdKmSfX6GnW6XaXrvt1Bm5rd2UPdAgnfU6bJdJc/suWWxq8Ht//9dNYb0dW2ShWXf/rjNS7yTw6PrNepw/KAAA06K35+tmLB5NWQAgm4YG5Ix0Sr1TU63C8Skd2HVwt+bbNdfVrSp0Dx2VbtklG+LSt6JCdsI8bXGd3Oe0UaleIQ3qkQaCErXeDtd6yu6rk8Wdh+1ac/f6b71NFptRq+Z/pFeaaQcDADlBMAeAbLCC8G1yqx53tz+3Bl3zXS2t1vgKOexuWgIAgEEwB4BJM81GNjVLmdWkZYvs9abuoTaJWI23dUDvl12Lz8iA3Cd14lM2Hb2HpdNdg241o3HxbMfQ0W451bAivmmMF23MASCnCOYAkAlzsqV9AuVuua1/RFqt1KuCt7lKi3NypXWipwrKsqXSzKuU7rp2aS6z24e7y0ZesNbuz/2Yumm6c/WVsmbZ1GA3n6n+y59aRb3bUanbt9sbCAAIqZLxK8PjZhwA8sL4uP2xpW9jg8i1a9dcw7h1q5eNjY3J1atjMnp1VK5cGZXLl9+SJ/Z1yfYdu631uF26dEnmzp1rpkJE12Y3ibTn2aUQd+/eLY8++qiZAoD89sgjj8imTZvMVLCg75Lt2zbJ/fW1Mnv29TJr1kxrmDlzppSWzpDSGaXUmAMAAABhQDAHgHxAx0EAUPAI5gAAAEAIBLYx1z3updO5B+X8Uc4f5fxRzl9QOW8b85vK7pbhwedTtjH/4J010vftv87PNuZ5SrcxB4BCko025p+sWy8njn0joY05J38CyDveYG4PBX7yJwAgb3DyJwAAAJDHCOYAAABACBDMAQAAgBAgmAMAAAAhQDAHAAAAQoCrsgDIO1yVJX9wuUQAhWYqu+QnmAPIOwTz/KGD+aOPPmqmACC/PfLII1MazGnKAgAAAIRAYDDXPe6lg3L+KOePcv4o5y/dcu+/9eNmLLk7P7rKjAEAkDvVNZ8yY/FoygIg79CUJX/QlAVAIaEpCwAAAFAECOYAAABACBDMASADc+bMSRiq24bMUgAAJo5gDgAZGBkZkZH+XbJ48S7p1+Nq6G0uM0sBAJg4gjkAZMWQtFXPkUivmZReicz5oHzwnohE1HynVj26fKhNqqO17dUSrWy35rumAQBFg2AOAFlRJs2bGqTzsEnevYel8//4Lfk3/3RGbmu3a9RHDqjl9REV2VVorzwvm0xN+0h/nXQ3taloDwAoZgRzAMiW6hXS0HlYxW6dyzulYdltIovr5D6nhYteLmdk4MSA+n+n1Ds15pVb5NSp83JBlylrlt6RXqFVDAAUH4I5AGRNtaxo6JTDvb1yuLNBVtxtZvtxtU23h1Z1bwBAMQsM5oXSIyDl/FHOH+X8hb1cmHr+rN6wS87U18uZXRsSg7Zu3qJr0JdWyMJTW2RvtD26C23MAaDgBfX8GRjM3xh+0YwlRzl/lPNHOX+U85duue9feN6MJffyd54xY1Oo7D6pW7xY6pz2KyqAVzpNVupFDvQ2S5mK7K39OsCb+Xqopo05ABSL3p6vm7F4NGUBgEzp9uBW0Hbp3StbxNWuPK7Jiqu5itWW3NWUxVkPbcwBoGgRzAEgi6yTPjd5wjoAAGkgmANAFlW3jkirUy3uV6MOAEAAgjkAAAAQAiXjV4bHzTgA5IXxcftjS9/GBpFr1665hnHrVi8bGxuTq1fHZPTqqFy5MiqXL78lT+zrku07dlvrcbt06ZLMnTvXTGGydu9OPMYAkM82bdpkxoIFfZds37ZJ7q+vldmzr5dZs2Zaw8yZM6W0dIaUziglmAPIPwRzAECYZRrMacoCAAAAhADBHAAAAAiBwGBeKD0CUs4f5fxRzl/Yy4Wp508AAFIJ6vmTNuYA8g5tzAEAYUYbcwAAACCPEcwBAACAEKApC4C8Q1MWAF5zvvhjM4YgI59/txnzd+zYMTOGIMuXLzdjyWXalIVgDiDvEMwBeBHMU0snmN91111mCl4vvfQSwRwAvAjmALycYD78mRutW8TM++ovrFuC+eRMRzCnjTkAAAAQAgRzAAAAIAQI5gAAAEAIBAbzQukRkHL+KOePcv7CXo6ePwGE0sV9Ule3Ty6ayaig+SgaQT1/BgbzN4ZfNGPJUc4f5fxRzh/l/KVb7vsXnjdjyb38nWfMGABM1kXZVzdP5hGwY/QfHPPUMYkOdbKPg+Ort+frZiweTVkAAAAm6uIxOSRr1b9DcozwGVO5TU4MD8uwHk6slENLN8txswipEcwBAAAm6OKxQyIrm+Te+f1yyJ3M3bXGS3dIv5kdOL+Q3Vwm882oJa5G3dSmW816Nstm/euDmr/5uPklwhq37xZ/PxP0rXnu0H9cNsctc8rnV609wRwAAGBCLoqVy5ffLMvuXSv9h46Z5iwqHKrQPb/TqTHeJpVJ5xe448/K/spyucWeUMdgUDa4a9M3mmZA/WelvEXN61wr+xs2ijjje/Xy+GN3YttZadCJ/eZ1smHtfnnWSeb6sdbeK8uSPU4eIJgDAABMhNWMZaWoXC6y7F5Z22+as1wckrOV26RpmVUqJmh+IerfIUud2uq95XKie53ow2QdA9kvDc4y/atB/6B8Ty+rNMfylnKpdI/rZZ5jd/PylVK5/1kVv/WhV+HdJPPjz56VbbpQssfJAwRzAACACdDNWPqjAbRBxUBPc5Zi5rQx178KeAOxu/25NTwmk/pbZVmTbDurQ/pxefasCfRath9nGhHMAQAA0qabsfTLWqdZih46TXMW3abaqT3XJXWA1yNB8wvZzeuku1OkwWn3bR2DHdLuND1Jl+d+1rGzmqxoN8vylWfl2c3PytmVy+2a+UwfJyQI5gAAAOmymrF4mqVEm7Msk8c658uOpXYzio2D801b8qD5BW7ZY3abcOsETHUMTmyTsw2miYke0rrUZPz9lu6YL52PxQ6+btpydr/IhnVOdXmmjxMOJeNXhsfNOADkhfFx+2NL38YGkWvXrrmGcetWLxsbG5OrV8dk9OqoXLkyKpcvvyVP7OuS7Tt2W+txu3TpksydO9dMAcgXc774Y+t2+DM3WreImffVX1i3I59/t3Ub5NixY3LXXXeZKXi99NJLsnz5cjOVXNB3yfZtm+T++lqZPft6mTVrpjXMnDlTSktnSOmM0uAa80LpEZBy/ijnj3L+wl6Onj8BAPkkqOdPaswB5B1qzAF4UWMejBrz7MhpjTkAAACA6UONOYC8Q405AC+nxhzBqDGfnOmoMSeYA8g7BHMAXgTz1NIJ5kiOYA4AHgRzAECYZRrMaWMOAAAAhADBHAAAAAgBgjkAAAAQAgRzAAAAIAQCg3mh9AhIOX+U80c5f2EvR8+fAIB8Qs+fAAoGV2UBAIQZV2UBAAAA8hjBHAAAAAgBmrIAyDtT3ZQFAIDJoudPAEVhKoM5AABThTbmAAAAQB4gmAMAAAAhQDAHAAAAQoBgDgAAAIRAYDAvlB4BKeePcv4o5y/s5ej5EwCQT+j5E0DB4KosAIB8xOUSARScqQ7mx44dM2MoVsuXLzdjiXh9QOM1gmSCXh8EcwAFZzqC+V133WWmUGxeeumllKGL10dx4zWCZJK9PriOOQAAAJAHCOYAAABACBDMAQAAgBAgmAMAAAAhQDAHAACTc3Gf1NXtk4tmEpgwXkMWgjkAFKmL++pk3rx50aFun/lK9H5BHt9sLd983EyjwFyUfXXqNUAogpt530cHPgCmRWAwL5QeASnnj3L+KOcv7OXo+XPidChfemilnBgelmFr6JT5O5bGwrlDh/SGs7LtxLA8tszMQ2G5eEwOyVr175AcI5lDsf5obxDpjH4+DEunPCtE8+wJ6vkzMJi/MfyiGUuOcv4o549y/ijnL91y37/wvBlL7uXvPGPGit1xad8hsq1lndxs5ogsk8dObBM5dCxWa6pD+dJDsvJEt6yLFUSBuXjskMjKJrl3fr96+s2zb/1qslk265p0U2NqVZgGzY+ya99j847L5nl14v17D2F2UfRLYtuJx9SnQsyyx+zp+F/azHNrfmXbt9nvdaFfA575unx0XnG+Pnp7vm7G4tGUBQCKzcUhOVu5UpZ7w/bNZTK/f1C+Z00cko2E8iJgh7CV6sWw7N610u/+w6z/rJS3mBrTzrWyv2GzXWMaNN9ys6zboOY9a+Ycf1b2r93Aayif6F9Q+udLWcBzdvO67mgt+nDnfNnRbp7r/h0yeK/rdbFXN43Sf6hZVe/R+zy2TAX1pYOywVnHiZVyaCPNqBwEcwBAon4V1rapL12+MAub1YzF/JG27F5Z2+9qzuL+400vk7My9EM1HjTfoeftt5s9HH92v6y9lzZQeaeyXG4xownctd0N+0XODtmfEZXbpMl5qm8pl0p9a72+XPM1XTEg+6XBWcfSHdIfrRAAwRwAio1VM+7TntiqSTdfyDp8rXtMTqw8JEvj2yqggOhmLP39O2SpFZIaVFxyNWfJ2DK5d+1+efb4cXl2/1ohl+eZoM8HTYdy65c0p7Z7mx3AJ0qF+Nj5LXqIbzZTzAjmAFB0lknTNvHUhuufl3foNg2uduf6Z+sW2Xa2IfGkUBQA3YylX9a6mhnoJghxzVkcukmK/mPtfWbaETB/mXqBnW1okLPbmghcecd8Pix1N1FST/VmM+36xcT6w84e9XfzclkpO8Rp7WKxgr9nHqII5gBQhHQ7Uas23Pk52b4Eg3QnNAa+WdZ1B1yxBfnNr5mB05xFN02J1qSrQb88us3JwkHz3XQgq6y02q4j/1ifD9vOxpqbqKFB7pVlN6+TDfNjz//GwfkpaszV50eL/iMttp7Nx+0Tzd3zuFRnTMn4leFxMw4AeWF83P7Y0rexQeTatWuuYdy61cvGxsbk6tUxGb06KleujMovf3lZnvyzA7J9x25rPV7Hjh2Tu+66y0yh2Lz00kuyfPlyM5WoKF4fusnCRpEWb+gOmu+lr4G9t1xOpCqXp3iNIJlkr4/t2zbJ/fW1Mnv29TJr1kyZOfM6NcyU664rldIZpdSYAyguTqgHMHWskz43FGYoBybLXankcMYJ5gAKGkEcyMDN66Tbt4lKwHyPZY/RIRWQicBgXig9AlLOH+X8Uc5f2Msl6/mzpKTEjNHzJwAgHO6tfcCMxaONOYC849SCOz8F2gNtzJEdtB9GKrxGkMxk2pgTzAHknckG88uX35In9nUlDeYobqlCF8BrBMmkG8ztcD5TSktnEMwB5KdkwVyPe8O5HnQwvzJ6Ja1gDgDAVNDB/PfW6GA+OxrMr7vuOq7KAqA4uNuYO/zmAQAwHfR3kP4asm/twUEwB1AwggJ3sg9BAACm04wZM+K+j/RXkjNOMAdQcOI/8GIh3PrQMx+IAADkQuz7yTWu/6lbgjmAvKM/vBzOh5rDPe6wPuxUIJ9RYofyGTMI5gCA3NDfR6WlpdbgfIfZA01ZABQI/YHm5nzIxX/o2aFcfygCAJAL+goszq+31neSqTSyBq7KAiAfpXtlFj1PT9uXTLxqrs4yKq17O637AwAwnf7zujVx1y+/rvS6WFgPCua6x703hl80U8Eo549y/ijnj3L+kpXTYdu5fd8tS+T7F56PhnB3MNeXTHSm5y/6bXnl1GG5OnZVRkf1MKoC+zUrtOtb5z73rWyQw9/cZ+7nDv7xH5erf7dJDj7dbqaCUc4f5fxRzh/l/FHOXy7LPfM3T0Rrw+1bO3Trpis6iOtQ/oll98upvm9GL5OYMpgDQJg5IdkdmvUsZ1wHbOfWCdd2ALdDuA7nuvZcT+syTjD33kePux8HAIAgTpMUzd1cRYdyO5w7Ad2uJXeHcoI5gLzlhGR3YLbHY81Z9OAN2XpwwvnYtfhQrge7nF3WuU9s3XxcAgCC+QdzO5DHxk0YL7HHnXOfCOYA8pYTkt239hAbd4drPd+ZdmrJnQCuA7pdznuf+HUCAODm/m5wArkdzmMhPRq6rXETznUvn9b8+OUEcwB5yf1hGAvQsRDtHeygHdxtvzVv3FmWeH9nAAAgiBPGvUO0vXn0sr2Jody6JZgDyEfukOwOzfZ4Yjh3wrf6LxbEXbfuMO4EdHuIPZZzCwCAHx2wnVs9at/GArk1bgK5Pe6+VeUJ5gDylTcw20HaGY9N6yEWzO2w7Z6OH3fKqEH/U7f2+uxbAAAc7u8GHbC9t9Y/fasGp9bcHncHdRPK9TTBHEC+cn8gWkHaFaL1qDPPb0jWXMUeEtcJAEAqOmA7t/bgHk8c3IGdYA4gb7nDsjdA61s9at8GDcmXO+uxb60bAACSUvna3HoDut/gWU4wB5CvnNCsecfdgdqZjs1zN1+J3dcp4wzOPPctAADJ6IDtvXUPsXn2rdOsRUTkfwOtd0K1Hx0EtgAAAABJRU5ErkJggg==;" vertex="1" parent="1">
          <mxGeometry x="220" y="270" width="742" height="421" as="geometry" />
        </mxCell>
        <mxCell id="VBmumWGFU4Ihw89p5VGh-2" value="" style="shape=image;verticalLabelPosition=bottom;labelBackgroundColor=default;verticalAlign=top;aspect=fixed;imageAspect=0;image=data:image/png,iVBORw0KGgoAAAANSUhEUgAABCcAAALjCAYAAAAhnG88AAAAAXNSR0IArs4c6QAAAARnQU1BAACxjwv8YQUAAAAJcEhZcwAADsMAAA7DAcdvqGQAAHBlSURBVHhe7d0NnFxXXTD+E9QgL0XeX8JL0nZD01oEImoStTVUShJCbKQUjYKVxuShap4Gi5oCUYMP1aeV5okaSUywVv+prWhrLEkslpgKSeQlCpSSNmua8CovgihQjMD+98yc3Xvv7OzuzOzM3pnZ7/fzmU/umZ29c+6d2cmc3z3n95s1dOb0UAAAAAAoySPSvwAAAAClEJwAAAAASiU4AQAAAJRKcAIAAAAoleAEAAAAUCrBCQAAAKBUghMAAABAqQQnAAAAgFIJTgAAAAClEpwAAAAASiU4AQAAAJRKcAIAAAAoleAEAAAAUCrBCQAAAKBUghMAAABAqQQnAAAAgFIJTgAAAAClmjV05vRQ2p5W33z4G+EzH/pIalU9ecFAePSTn5haAAAAwEww6cyJOXMXpa32+sonPxP+5MWvLNxOHTqSfjo1nepzp/Yb6XNGn4v0OeNcZPS5SJ8zzkVGn4v0OaPPGeeiSJ8z+pxxLoo6te/SZk78+4Mnwx9cuDS1ql556/ZwwStelloAAADATCDnBAAAAFAqwQkAAACgVIITAAAAQKn6OzhxYFOYNXtuY7eLdofB9GtNq/M86w+knzWrmT7P3hT2p19rWaf7fvXB9MNGnQpbL6rZx/Ct5T4BAADQ9cycGHF0S5hfGQg3P+Dfv3dP2srs3NvsoLwVe8KKFvs8ouN937UtbG0m6jN4T7j9aNoGAABgRhCcGKM64G/8Sv3BcOeutJm36+6pz2poWOzz6uaCABXT0fdjYePbGg927H/bltCegrIAAAD0ihkUnFgYbrr/dBg6U+d2/+awOD1qxM5VDQ72D9wddqbNoj3hzikvRWimz8fCxtc2uTSlo33PaTTYMbg7vKVesAQAAIC+ZuZENHBVODw84D9x48J0R9TYFf/Csoi1N4d9a9P2sI4u7aj0+VC4aVFqR0e3hBuaCCp0tu9rwrrR/e0Jb9l2Km2Pb3DfXaOzJtbdODZgBAAAQH8SnMgZ2HBTcbA/6RX/4rKIdauWhvkLcgGOji/tmBeueUdxEN94UKHzfb/s9Vnfjly7Y9JzecO1x9L2mnDZirQJAABA3xOcKJgXVl6enz0xyfKGwrKI4QH1shAGVqzMBQvavDyinoFLwhX5gMp9Jxtb2jEdfR+4Krw5N3ui0XO5+Mb1YXnaBgAAoP8JTtQYeO6CtDW54rKIS6sD6ppgwfRU7WjedPV9+ao1aWt4f28dLyfGqbD1rSP9WRPevGFe2gYAAGAmEJxo2dhlEVU1sy86vrSjxoXnhIG0Ob5p7Puy9dlSmfFyYhzYETaOlA8dCZQAAAAwYwhO1Bh88HjaihaG88cb6ddZFjFiWpd2DN4Tbh8Z2A9bvODstDWBae37vHDNdRPPnshmcSwMN71+JFACAADATCE4UZBPyjhs0cqwcpzgRN1lESOmcWlHvsJFHNxfsWLyJRHT3vdll4Z1aTMcvSvclY9O5MuHrt0Qrpl82gcAAAB9RnBi1Kmw9aIrczMKQlh33VXjLJEYb1nEiGla2jE8sH9NPpjS0OC+jL4vDW8YLdNaLNG6/21bsvKhY/oCAADATCA4ER3YFGbNvjjLexAt2hzekFvuUDDBsogRnV7aMbhtdZh1QTawj/3Yt72BwX1JfR/YsCGbPbFrW9hamT2RC5RMdL4BAADoazMoOHEsbLxgbpg1u85tVW6ZQzQ8UD5x73izJiZZFjGidnnEuJUqJjJ+n+fnZ0zEwMSZ6xtKJDl9fa+1NFw2Wlb0WLh936kwuG3baKBk/FkqAAAA9DszJ2osvvFQGJogMDH5sogRNcsjanMttEmlvw0GJsru+/LXbx6dkXHk2o3hNe8cCbDUn8EBAADAzCA4kazbe3p4kH86HN4wSULJBpZFjCguj6jOFmirRZvDLZP1N6/svhdmZBwLR9IymsU3rm8wuAIAAEA/mkHBiYXhpvurAYh6tx0NXrkvLIsIe8KKOksuRm+FnBAhHHnnPU0ujxjb532jSyOGHd0S5l/deDWN6e17PcWyolVrwpubCbAAAADQd8ycaEpxWUTT2rA8Yvn2Q+GmXD6IsOvKsGRbI7Mayu97xbL1xf6Pl/cCAACAGWPS4MScufmRZG/oVJ/nPP3q3LKIVoy/PKLxPs8L19x7c1b5YtiRay8O68epqDG638KSjlaM7Xtr5zmfz2JhuOn1Y/NedPI917H3hj4X9FqfnYsifc7oc8a5KNLnjD4X9VqfnYsifc7oc8a5KOrUvmcNnTk9lLan1b8/eDL8wYXFgekrb90eLnjFy1KrDWKJ0NFKHHGJxB3hmimUhNh/9dywIlf6cqKKHplTYetFuTKlk/1eo30uPC6a+Pimv++NVxCpa3B3WJJbWhJzgjS69AYAAIDeYllHw4rLIhZffkkDg/uoQ1U7ll0fTtyY22+IZUc3hf2pVdRlfQcAAICcngxODG5bXUze2ERSyJYVlkUsDFesaDyJY6eqdgxsuKOYIDMmubxo99jElV3YdwAAABhh5kSDCpUuFq0MKxubelBVKKHZrsoXVWMSZNap4NGtfQcAAIBIcKIRg7vDW3LLItZd10i+hrxOLo8YmyCzUMGjq/sOAAAAghMNGdx312hixpjo8bIWEjN2dnnE0rDj/s25/WcVPLq/7wAAAMx0ghOTOhXueuextD1s7aWtVaDo9PKIgavC4b1rUqNq56q54SW/3wN9BwAAYEbr71KiAAAAQNczcwIAAAAoleAEAAAAUCrBCQAAAKBUghMAAABAqQQnAAAAgFIJTgAAAAClEpwAAAAASiU4AQAAAJRq1tCZ00Npe1o9dPBwuOWlP51aVd/z7DnhkY87K7VgrJV/+Nbw7CUvSi0AAAD6QWnBiX+9+1D485WvSS1ozM/edUs499KLUwsAAIB+YFkHAAAAUCrBCQAAAKBUpS3r+Oy/3Bf+4hW/kFpVT3ruOeHRT3xCasFYP/prvxie9n3npxYAAAD9YNLgxJy5i8JnTh9Nrfbq1L57bb+RPmf0uUifM85FRp+L9DnjXGT0uUifM/qccS6K9DmjzxnnoqhT+y5t5gQAAABAJOcEAAAAUCrBCQAAAKBUghMAAABAqQQnAAAAgFIJTgAAAAClEpwAAAAASiU4AQAAAJRKcAIAAAAoleAEAAAAUCrBCQAAAKBUghMAAABAqQQnAAAAgFIJTgAAAAClEpwAAAAASiU4AQAAAJRKcAIAAAAoleAEAAAAUCrBCQAAAKBUghMAAABAqQQnAAAAgFL1SHDiYFg/e26YNd7t6oPpcQAAAECvmTQ4MWfuorTVfpPue3B3WFIJQFwZdqa76tp1ZSFQ0ak+V/d7Kmy9KD1X5bYp7K/+eEo61uenn5/r6yS3i3aHwfR7jejseW7e4LbVo8ey/kC6s0a39bkR+pxxLjL6XKTPGecio89F+pzR54xzUaTPGX3OOBdFndr3rKEzp4fSdnc5sCnMWrUnNZqxMNx0/x3hmoHUbLsYnLg4bDyammFN2Hfm+rA8tbpOS+exy49pHPuvnhtW7Kpur9t7OuxYVt0GAACgu3Xnso44Y6J2QL1oczhx5nQYqr3tXZMeQPvsCSsmmH3QlYbfM29JgQkAAAB6SxcGJ06Fra/dEo6kVnUmxOkwdO9Voe5kiGXXV4MU928Oi9NdnTUvXHNvLjjSUzMM0rkc7XvuVuf87Vy1OmxtZp1HSSrLOS7Iv2cAAADoJd0XnBi8J9w+umQihMU33tTYEo2Bq8Lh4UH2vrWpTXPS+Ttx48J0R3QsbHxbNyYbLeb9mH/tsXQ/AAAAvagLgxODhVkTV6yYl7Ybs3x7M/km6lcB6cxyhtpEmrlbQ9VGxq9Y0s7+Dmy4KdyUz2+y6+66CT/zySfr3lRQAQAAoEFdF5wYfPB42mqfmCixOGgeCRTUrwKyc1X82fhVOAoD80krXIw8Vz6JZo3RaiP1llFM3Ndosv42Z15YeXl+9sSecGc++BETbA73ddLZCumYlmw7le4oGvuaZAo/a7KCCAAAAL2n64ITA89dkLaiY+Hj7R6Z3rctLJkoUDBqT1gx1YFxpRRqI881ovZ442yJRn8/JrFsT4Ci+BpMzZFrLx43QFFrJOgzUnFjfLV5P+rnzAAAAKA3dN+yjoGBwiBz51vbfOX86LHRZSOLbzxUHOCeuTmsSz+rOLolvKbBgfVYB8P6MUkaY4nO/PPF26HiMopRMTBRnC0Ry2MWf7c2R0QbAipNqNefyq0mUHDk2o2TJNY8WZkdIncEAADAzNSFwYlLwhX5wfrRLWF+25YsJGtvrgyiD2+ozWexNOyoCRYcuXZHS889uG1bIbBQDYTUq+yRzQLIJ/Ms/n41qLFjWWrmDGy4o1hOdfh83TDFHBTFpTULw/n5HB4j1VHG6U9FJblmPtBzLNy+b4Igz64to7NDxgSMxqvSAgAAQN/ovuBEHKxflxtsV8QlCyN5CKYYqIiBie1LU6Oe2uevybnQkIPhhvwsgOHnHBsIGWv59pEBf/73Y/nPScqVLru+ENjYuXcqyShr+r5oZVjZUnRgabgs16cjxx9KW+MYN2AEAABAv+vC4MSweHU+PxugIB+o6FDCxGWXFpZ3ND3YP3B3btbDwnDT6ycKhtSR//21GxqqPrJ8Ve583XeyxXMSk2/WLCW5rvWZC/MX5JecTGDSgBEAAAD9rDuDE1Fl+UBNDoh6Kss+YqCiXqWLVhWv+jc72N+/d0/aGtbCzIP87y9ecHbamkQ+V8fRwXAibTasUoWjJvnmos3hDeMt3SioXya1kEOi5YAJAAAA/a57gxMVMQdEyj0w7kyKEcfCxgvGL13ZrIav+o9xKjxwX9qMLjynyZkHxd+P1S5qB/11b2OSb9ZTPUd1f39VLqASLdocTkyU7yGVFK3emqlIAgAAAEVdHpzIySVinChYMXlliBa0MhMhaXjmQxepJKUcNzARq4jUCWYAAABAi3onOFFrNFhRW4rzWNj4tqkkhJyqh8LHpzSLYKq/37qR0qDjJ6Ucm5MiM7ZMarHMKQAAANTXu8GJUbEUZ01uil13t7f06KKBMD9tTu7scH4hWDI1Y0prNnQbr7pHrPxR7/HV27ilQZPBbRtrlm/kAxKTVBQBAACAcfRBcCKqSWAZjocHpri048TxXDLHKZi0hOYY7Q1utM+pcNc78+ckBiYEJAAAAJi6PglOTCWBZT1TSWo5L5x3YdqMmq5SUfz95oMbnVJcbrL4xvUCEwAAALRF3wQnihaE85os31kweE+4PTcQX7dqadpqTCFQcvSucFeTszgKv9/uJSoAAADQZbouOLH/6tUtVNuoWXKw9tIpXdUf3HdXriznmnDZJLkYag2sWBkWp+1WEnQWf39PWHF1mQk+AQAAoLO6cObE8GD+grlh1kW7G14Osf/qiwuJGpud6VBwYFOYf20W6Ghp+cLAVeHN+RwYu64MS7adSo3xDW5bHdYfGN5o8fcrhvs/qyPBjGJejyPvvGfC12f/1XML5xEAAADGM2lwYs7czmVnnHDfR7eE+bPnhlnDt8qAvZ7B3WHJ8M9X7ErtaNHmcMf6CfY7PNCfNbv+7Iw4oJ61ak9qRWvCm3NlNZs5F8u3FyuIHLn24nEDLpXnHT6O/GC+7u+P0+9qic/qPor9H+7zlXemralbvmpN2hpWeX3OH7vkJAZHal+TJpX2npsCfS7qtT47F0X6nNHnjHNRpM8ZfS7qtT47F0X6nNHnjHNR1Kl9zxo6c3oobXeFOFBveWC7aHM4ce9VY5JXtrbPWHbzjnBNndwVcYbDaCBhnOesiMGTC7bklohMbt3eXEnPFn6/Yu3NYWh7mj0SgwWjAYvxj6kxMQhSnKUykcWLFoYjR+ufp8Jrku9vQ5rrR8VErxMAAACl6rplHcu3nw77CmVBGxQHuG0bfE51EJ8MXBUOnynOgJjYwnB+/jkrv38o3NRkYGrxgrPTVrvNC9fc28jxxDKjp8Mtl6cmAAAATKArq3XEAMXQ8OA23iYNVMSgRHxso1fe0+NP3Fi/9GicuTB0pg2BiVFLw47KsUwwqB85hrrPGwMCDZyL0X2cDodzS1HaLx3P3twSj1HVoMTQmeuVGQUAAKBhXbesoxOmtoQAAAAA6KSunDkBAAAAzByCEwAAAECpBCcAAACAUglOAAAAAKUSnAAAAABKJTgBAAAAlGpGlBIFAAAAupeZEwAAAECpBCcAAACAUglOAAAAAKUSnAAAAABKJTgBAAAAlEpwogvtv3pumDW7eFuy7VT6aRkOhvWVfqwOWwfTXbTJqbD1ouJrvf5A+lG7HdhUeJ5ZszeF/elHExrze8O3qw+mHwIAAEzdDAhO1A7+GhyQlSENAlfsSu22qDn+i3aHnosvFAbHXfz6tWD/1ReHjUdTIywMN91/OuxYlpqTGNy2evS8NBTQWHZ9GLp/c1icmiHsCStafT/surLx5wUAAJiEmRPdYnB3WLJqT2qEsPjGQ2HozOnR2+EN89JPmlMc/NJVDmwqBKLW7b0jXDOQGg04cfxY2mrCwFXhcD5AcXRLeM1ks3JiUCP3Xjxx48L0gxB2rjKbBgAAmDrBiS6x/21bwpG0HQMTrQYj8uLykOZmYcTlG80ONlv5HeoFoxqdMVEx/PtvaXWGzcBV4ZZcgOHItRubev0GNtyRC1AcCxvfZokHAAAwNTMgODEvXHNvdtV36Mz1YXn6Sfc4GO4cHWiuCW9uQ2AiTvlvdnnI/quvDDvjYPOC8ZZPLAjnjV7ZH1kukn7ntT24XKRE+WBUWLQ53NLEa15ZznFB7vdbMLDhpnDTotRo4fUb2LAhrEvbYdfdfbXUBgAAmH6TBifmzB0dwbRdp/bda/sNgyfDzWkzLBoI89Nmq+Lgdf61I1P+Z4d1a7Or5BNZvv10GNq7JrX2hBUxn0GdxIfVXAfZcpHKEpR7rwpNrEiYUN+/5wrLORaGm94x8bmbM/dFhbwh2Ws7FfPC//3XxxWWd9zQVP6Is8P5o4e8J9xZ87u99jfY9++5JulzRp8zzkWRPmf0uajX+uxcFOlzRp8zzkVRp/Y9a+jM6aG03QPiEoJ4pb5o3d7Gkwh2pZjwcWSK/6LN4cRUBvr5fQ2L5+YND+aCFQ3uvxjgqK/R5SeT7mvtzWFo+9LUqKNwTGvCvgZnv0z5eeuq9x6MiSwbzRcRZ5zk8oA01Iea36mj1b+BwtKfpt57xT71/N8gAABQqq5c1lEopVm5cp9fQjDWzlXxZ+NXcahe6U/768VqFY2qE5hodcAY8wrUJj8cFQfUwz+bNDAR+9PIlf5U+aG2XOro+yB3TKMzOsbccq//FJ83au49mJbCNFJec/CecPtokGFhuOn1zQZH2mv564vJMZubPQEAANAe3Z9z4r5tYUluCcH4plAWsR9MNcFiFzhy7cV1AwWdNunzNvoe3HXlpP0v5ppYGVY2NE2hNm/K8K1QEnQKBq4Kb16btoft3Cu5JQAAMP26Pzhx9FihikVhgHbm5iwpX9RIWcR+FAMTuQSJjS63mMjIbJO6sw/SjIOGZgokcRZH8bVLt5pBdrOVIybTlued6D04Zj87JkgOmU98Oty369qXp2Mqlq8ayTMyTHJLAACgBL1RrWPcZQRLw44zh3JVByYbHE6sMJV/qrdpm8VxMKzPV24YPldTCkzULomonPuRIFDM95Bb6jHBsoiKZdePDuLHncUxcFU4XAgyHQu376vur5KgM/7+aJLOqNqHkf1mt1weiik+b10xH8Pw/sac27ifQoBibHLIUYMnw0fTZlzScX43RCaiZZfmzsME/QcAAOiQ7g9OTJowcF645rr84LX3BleDDx5PW8MuPKeJq+kxD0IuB8Kk52pileBMIfHk8AC/zv6q+SiyoFBcFjG1YMzScFluacGR4w+lrU5r8HnjeZ0oUeTAJeGKXIBsvKURg/vuamFJx3QonofGlnbMC+ddmDaHffTBGThjCQAAaJvemDkxmcKV395bN3/ieLZ0YvGCs9PWZGoqOMQr+1MITETLt8eZBLHyRM1MhFHHwwOjEYiRPAjpdyYphzmZ+QsaK3fabu153uJAfTyF1/nyS7piSceIwnm472RDgab870xfQAkAAOhH/RGcqLny2+jgqtboMoJ23BouyZjPQ7AwXLGisSUZ+6+uCUxMpfzoqLhMptGSmCOa/Z2RqhfFWyG3RYuv38Sm8Xnr7udUeOC+tDnsec+dWk6Qdht47oK01biBFSuz5SxyVQAAAFPQJ8GJ8q68T9X+q/PLMjY0Nsg/sCmsGA1orAn72hKY6KCUx6J6a6TySptM4/P26vtv1MBAFmg4OhhOpM0JDVwVbhktNbsnrGgiQSoAAEBe3wQnChodXJXqYFg/PGgeDTK0vCxjeFA4OgCvfyvMDji6Jcwf/dmmDl/trh5jlsdiupT1vBN5KHx8NDjSRckwRwycE56XNpsR84/sG5m1VEmQurqt1VYAAICZoT+DE10rDZort2zGRKU8ZVfPfohLN+JylWaXb+RmhRSMrbgxWgFkysp63n6Szy0yucpyqNGKKsfCxgtG3uNzw3qVPwAAgAb0Z3Bi0UCYnzabMf2lRKvJJ6dU+rNLDW7bWLOMIh8YqJdssz3Ket4Zr1K+tVjWFwAAoFF9E5zIV0LoHekqc7Nr9SsDwZEB9+S3wuyAuHxk9GedGqyfCne9M/96xADBdAQGynrefrMgnNfkNJ7BbavDtOYTAQAA+kqfBCeKlRDChed06RKJkeUR8Za7ylxZq9/p/A/TKZ9fIS5bWT9NAYKynrcRZ4fzu3lWweDJ8NG02ZxqFZQsr0lx6cyOZeluAACACfRHcGLwnnB7blC6blUriSWnu5TovHDNvflZDXvCioaWgtD7joWPd9sLPTgYjqTNZpZFFUrarr15+L1vpgoAANC8vghODO67KxtYhTXhsh66WjuwYUNYl7ZjJY0bJBDsU/PCeRemzWEfffBU2uoOgw8eT1tNGNwd3pIvadtStRkAAIB+CE4c2FQoldldU/kbsTRcNlKKcdjOvU3mn+hKxWM68s57JpwREhORFsqdTmiiShKdfN6pm78gy/0xWd+mWz5ny+LLL2loWdT+t23JgoJrLzVjAgAAaFn3Bycq+RhWh611RnKV6hqr9qRWtCa8uQcrX+QHreG+k32xtGP5qpHSksOObgnz6+XUOLCpUtlkxejV93EsuzSbXVJJIlq7r1iitXpfW5+3zQaeuyBtDTs6GE6kzfIdDHfmzsXzntv839DiBWenLQAAgOb1yMyJVNUiX6pzzOAyluXszfXuhUFrv1i2vqas5J6woub1yweWFi/KBWjGKM6IGLuvK8PO9JP2Pm+bFYIse8KdDS/hqSadLBzDBblZC8N2rqr5eTP5Sw7cnZ2/hpdFFZPQthLQAAAAGNEfCTErgYk7wjXdWaJjhooJP2/ODcbHU63ucMvlqTmO5dtz1U0m1N7nba+aJTxv7Y4EqPv35mYfWZ4BAACUoPuDE5UKAPmqFkXr9sbqGAIT3SmVTt2bW2oxaqTkZKOzXarVTervqzbXSDuft72Wv35zWJy2w9G7wl1lRycKSS1br3QDAAAwFbOGB/5DabtrxFwSo0s2YnCi36sAxBwII0sNFm0OJyYtQ0rviks0aspvlvj+LvytNfXeKx5HDBLu6KEqOQAAQHeZdObEnLkNzaVvSaf23Wv77SSvX1H5fZ4XrnlHbvbErm11k73mdazPz3xecdbEde0LivXae6NT+430OaPPRb3WZ+eiSJ8z+lzUa312Lor0OaPPGeeiqFP7NnOiGwzuDktGExzGZQe9mdiTxrU+Y6FdamZwNN2HWCFlJBGpnC8AAMDU9ElCzB43cEm4YjT4tCe8ZduptE2/Wr49l7Tz6Jbwmml+zQe3bcwCEzG48I7mgiOD27ZlFT4WrQwrBSYAAIApEJzoCvPCNddlyRuPXHtxWCJA0eeWhh25hJ3xNV/fcGnRKRrcHV5z7bHUiMlEb2pq1sPgttVhfu7327kcBAAAmJkEJ7rFsusL1SXiYHXW7LmjN8GKPjT8mu/LlxZdtXrS/BNTVlhCNGzR5nDLhnmpMY6YsDX3XiwEJiTCBAAA2kBwopvEAMWZ04UBK/1t+fZD4abRJT3HwsYL5nZuBkUMMuQDEzG/Sau5LlKJX4EJAACgHboyISYAAAAwc5g5AQAAAJRKcAIAAAAoleAEAAAAUCrBCQAAAKBUghMAAABAqQQnAAAAgFL1XHBicNvqMGv23HFv6w+kB07qYFhf5/dnzV4dtg6mh0yi0JeLdocGf41xnQpbL8q/Fs28ni04sKnwXLNmbwr7049alt/n1QfTnRNp/JgnfO839FwTGfl7aPz9353acRxT/2zoDt3+mvoMLujE5xEAQA/pkeBENoCbf+2xdF99O1eNfLEb/wvu/qvjz68MO1O7vtpBY4tfFAtfOH3ZnMj+qy8OG4+mRlgYbrr/dNixLDUbkB+oNBTUWHZ9GLp/c1icmiHsCSumOMDZv3dP2gph3aqlaWt8kx1z/pgmfO/vurL6uCkHKcrWpr+7FjX22dDnxgySJ7q19vpMfp7b+D7olc/gDnweAQD0ku4PTlS+WOYHcI06FjZeMDcs2XYqtaviYG/FrtSgewy/zvnXZd3eO8I1A6nRoBPHJw5c1TVwVTicHxAc3RJeU/OeadzBcOfoMawJl00WWGnDMY8RgxQ9H6Aoh8+GVgwPoJsc9DvPE2jr5xEAQG/p7uBEDEysyq5Ej1i393QYOlPntndNesR4DoYbClef14R9Y/bThgEizRncHZbkXufFNx5qasZExfA+3tLqgGd4QHDLjQtTI4Qj125sbRr8gbuzK8FrLw3L02ZdLR1zvffr6XAi1/eKXVdOMHMkTqVvdpp/K7/Tae0+jl7+bOiG1zQGKRrZn8/gSbXr8wgAoMd0b3CiZvAWxQFc/PI67iAuToutfLm9OaxLdxXkB4+VKfTXTzCAnBeuuTf/hXmixzIV+9+2JRxJ22HR5nDLhnmp0ZjK0ocLcvtowcCGm8JNi1Ijzrp5bfPTqZtZ0tHMMY+878d7Dw5suGNMYG7nW+v3f//VcSp9dVZR/avdC8J5owPDkan16XdaOCfNa+zvru3H0dRnQ3fp7GtaXWqUvR65W2EJQtTA/ho+zzP787cdn0cAAL2mS4MTw1+gX1scbMbZEocbHrQuDTuGv9COuaKct2hlWDmTr851i8LShuHByjuuCpO/LMX16JPlIWnM8GDoHcXp1Dc0lYzzVHjgvrQ5fBznT3QQTRxzDDw09L5fdn3YtzZtR0fvCnfVGc0s3z480BsNZKQp+XWWgVRzXWTLqSoBknsbeW2mR0ePo8c+G0p7TeMShDOHcoPoYc383fgMnsBUP48AAHpPdwYnDuwo5phYe3Pz0/yH1Q7sBh88nrZ6SZx+nQ3E87eOVrKYFqfC1rfmZses3VDudO7hwdabcwP88WYf1DV4T7h95D074aCrc8c8f8EEwbi8NMNoNHhXSaYZr6RH1cHtSMBnZNZG44HBvPrv3ba9b9t4HN312VAMvhVu4+UTmbbXtFbNIHrYzr3j5zzpvc/gEj9/p/J5BADQg7owOFEzeItrkrdPXvVgItUrhjVX2I9uCfNrvmzWToke+b3Krcms6dVs9MO3wtKUdFVzzK3eVOyRAcrIAGOsamWSer+be/54qxnQFH5WZjb4/IA+ziB4/dRe53ZY/vrWrlYO7rtrdKbP4ssvGf9qdAePeeC5C9JWdCx8fJIXtrIcJD+gzVt7c8MD2LHvtYnfuxO9b6Nm/+6mchytfjZ0xsh5myABcCXoEB9TP79Du17TpgxcEq7Iz5647+SY16yV8zyVz99oap/B3fH52+rnEQBAL+q+4ERh8DZsssSCfSlerWu0Qkn8st3YwGnky363ZMov5l1oZop37Xr04duY9e8tqr1aOcFV4MypcNc7RwZdC8MVK8Yf/LV+zJMrXpWeZGlJp9y3LSxp6L07/L4tMzDWbWKOnYb/5qPJg0+0qos+f1v6PAIA6E2TBifmzM1fEmuvuvseHCzmmpgksWA9nerzkg6ei58d3Xf8Yly8WlevOknxyuhkA72TlauAhauWbTC185wvuzl8jNdla9+n/T1XY/mqXHLJXXdPPvAYvCf82shAZsKAw/jHPJFGz0exlGo+CWJ9T33y/Mpgqe77YuQK/XjLCMZz9Fg2gyQtH8huNYlqjzZfJrHeuah7VX5Eq8fRRpO/fsN/82MSutarYlHM7/DnV3bpubjwnNbzWEzFsa1pYyrGfv4++onPqHkd2vj520Cfm/48Gtapz9BO7TfS54w+F+lzxrnI6HORPmeci0wv9nnS4MRnTjd8Ka9p9fbdjqu/tfutO9V50eZwouYL52QZ4Q83cS4qSeriPgtVFOqXgozP++9p34PbtuW+GFcfXy/fRuWY8vueaMrvri2jVwHHDBhrEuIVphxPcvvsZz9b9/7R20Rf2AdPho+mzdrXebrfc2MsuzQ3iN4T7pxkKnVc0nEmbU+8pGP8Y55IY+ejGPgIiwbC/LQ5RizRO/z6fOE/U68r0/1HAgfV99zo30oa0C5pJogw7vKBmKi2OMA+cu2OhgZbIwrnIh3H6KCvheNo12fDRCZ7/Yp/8yN/o/WeL5sxFJOf/uzN7T0XLauZ7bZ4wdlpKzMd5zksvCZtVDX7GRyft97n79f+bezr17bP369+dPJATpOfR1GnPkM7td9InzP6XKTPGecio89F+pxxLjK92OeuW9bR7NXf/nIw3DB6dW2iMntJTYWGCaf8dmq9eYvyORq6L2v/0nBZw1OpG1/S0cljHjPAHSdIUgk+ja7BTwO1OjldqoPJLJBw5NqLG1v3H99nE+aIGR5gX5cfLDY22KrV8eOYNvm/+WHD56+Rv9E48B4JWpZ9Lgrv60n+Brpbt37+NvN5BADQu7owIWbORFd/+9GBu7MBZoNVHApTfuskoquYdMA4/fJBqAlnG5SkUPlivPNa8VD4+GjgcOJgWueOuWaAOzxAffM4g6Dl2+PV9Djwildu6w2+jocHRg925Ep9+p2Gyrw2oHAluLXBVlccRzvk/+Zj31pIkFrquRjcHV5TCK6UXHFnKrr487fxzyMAgN7VZcGJU+GB+9LmDLR/b5ZVvt7U6LoGBnLZ3AfDibTZqtGp0O241SwZyRRf5+c9t/uutBYrX0ygMKCZKHlr5455/9W1OUomuuIbl1bc0eQAspXfmUjxSnBrg61uOI6py//Ntz6bppxzUclvUciVsWbKlZXK1A2fv+Np+PMIAKCHdVlwYl4478K0OeMUB6+VKdezU+6GiW5jEunRFg0OOvIDmlaSt05VHCAWsv+vvblujpJuU7gSPGPVBGPLSiQ5oWNh4wV1PneGb8UEj3E5ySTLILpal3/+TlMQBACgTN29rMOXsD6VXwpRUsnLyQycE56XNseXT0K5Jlw2YVCgA8d8YFNxgBgTDPbilWt/5xUNX63vMuMn8KRtGvo8AgDobV0XnCheUc2vle53+cEr3WWc92HDSzo6YHB3WDKaBHFYDEyMu4ymEXGaf1yO013LHprXS8fR6b/5aTgXw++7W7okye7U9NLn70z6fxEAmEm6LjhRXFt7LHx8hn4JG1NyrqHb1K9eNlNKdNJbV1VFaL/SlnTEwETtWv8pBSZKNtMS3446O5zfmRLRbTSSaDO75StUxBKa86/uv+oRZX3+AgDMZN23rCO/tnbYzCmb1gsDlZmqXhWOZpZ0tFG9wEQPDoqKJYOJjhx/KG11t+Xbs3KkFbuuDEu2nUqNXtVLn78zrcQ2ADBTdGFw4pJwReGL77awdUbMnigmA+2VgUpremAgMHgyfDRt1pX/eUNLOtpwzH0SmOiNRJDToSYBcM+UiIzlSGMp0kxMILn+QGr0pC7//J3s8wgAoA90YULMeWHl5fm8E8fCxrfNjNkThXwbu+4O+9PmdJqeUqJ5Xbp0Z3AwCwLUWXYwuO+u0Z83n8iwhWPum8DEsMF7wu259f1lVDnpFoW/+aN3hbt6JhC7NOzYuyZtV+1ctbqnA8nd8Pk7rkk+jwAA+kEXBidCGNiwoXBVLk4bbuWqXCyz2EvTjQdWrMwtadkTVvThWu6q4lXKjz7Yfa/R4IPH01Y9p8Jd7xxZlrAwXLGikYSAUzjm2sBETH7Zw+vb84GdaV0S04WKf/M9Fohddn04cWNNIPmCTd01qG9CN3/+Tvx5BADQH7oyOFH/qtzcJgINB8P62bV1+LvBJFnWB64Kb84nm2tmLfeBTWFWDwUz8lcpj7zznq6bzp7PibD48kuKM0DyV/4XrQwrG1yT0NIx1wtM9HLyy5ryp4tvXN+zQZa2aPFvPgZeu2EZxcCGO4oJMuOgvqsT4U7wGdzFn78Tfh4BAPSJLg1ODBtzVa66rjlWgRj3S3n8glipFHFlVuKxbMsuzc0CqXdlMQZSsvuWbx+7lnvW7PGmS58KWy9KlTHyZSV7QKEqy9HBcCJtdod8sssQnvfc4syIwpKOJgYKzR/z8Huj1wITwwO68d6vlUowhffpmvDmvihDOTV1/+bHGeCPVNPppsDrmASZ3VbBo4nP4O78/J348wgAoF90b3BiWLwqVxugiOIsimoQoubWlQP0peGy2iuLhX7XBlKWhh33by5ULKl+oc7/zsjt4rCxZ2rz1ygMGPaEO5u6CpwbFIzcCvkY6rxHmrmae+Du3GtSu+yglSUdyZSOeVgc9OWPqYFbOVfX679fV+QGWNUSlUovVtX5mx/ntS6ew24xNkFmU7MOOq6Zz+Au/Pyd8PMIAKB/dHVwIooBiqEzNV98GxITBp4Oh7vgyuyYK4uTGbgqHD7T5O8Maz4xY5mKA4adb+2eqeD79+aCXLWVOFpc0lHVvcc8vWJg4o5wjbnpmcrffDOfcwvD+V11/sYO6rupgkdTn8Fd9vk74ecRAEAf6frgRNXwF99UAaLeTIpMHPSMVIvopquy8cricJ9q8miMqL/uPv3O8LEU13TXWHtzOt7uCMQ0Y/nrc4OZbqlUMLg7vCV3dbq2kkSrSzpGdOUxt1N6P473d7pub3yvCkzUN/I5N0GQYvTvvQvPYRzUTylXUCc1+xncJZ+/k3weAQD0k1nDX6qG0jZMs7g8Izc1On7R317ul++4pn906nydHA/5n8eB9o6mp1h33zFPVeGc9cHxQLeY7PMIAKCf9MjMCfrTvHDNO3IzCXZtGyfx3DSpvUp5Xe1AIJ+YrtW13112zEB3mvTzCACgvwhOUK5C+b5jYeNry8rDcCpsfW2xMsYbaoMP+cR0U1n73TXHDHSnBj6PAAD6jOAEpSuU7zu6JbymhDXqg9s25jLvLww3vWPsVcp8Yrqprv3uhmOmCaNlitt365ZkkXSfRj6PAAD6jeAEXWBp2JFLVDftWf4Hd4fXXDtSHjQmx7upTrLBdizpyCv5mIHu1NDnEQBA/5k0ODFnbpP11JrQqX332n6jGd/nZdcXsuLvXLW6I7kYxvR5eCCw5ILi9Olb6mXdn2RJR0vnosFjnvHvjZzS9jv8Wo1UZWj29oxnPKPu/c0nUy3y+hX1RZ8b/TyahNcvo89F+pzR54xzUaTPGX3OOBdFndq3ah10kZpKFsNaq4jRoDhVf1W2VCPOiNg37SVop/mYO0C1DmiDrvg8AgAoj+AEAAAAUCo5JwAAAIBSCU4AAAAApRKcAAAAAEolOAEAAACUSnACAAAAKJXgBAAAAFAqwQkAAACgVIITAAAAQKkEJwAAAIBSCU4AAAAApRKcAAAAAEolOAEAAACUSnACAAAAKJXgBAAAAFAqwQkAAACgVIITAAAAQKkEJwAAAIBSCU4AAAAApRKcAAAAAEo1aXBiztxFaav9OrXvXttvpM8ZfS7S54xzkdHnIn3OOBcZfS7S54w+Z5yLIn3O6HPGuSjq1L5nDZ05PZS2AQAAAKadZR0AAABAqQQnAAAAgFIJTgAAAAClEpwAAAAASiU4AQAAAJRKcAIAAAAoleAEAAAAUCrBCQAAAKBUghMAAABAqQQnAAAAgFIJTgAAAAClEpwAAAAASiU4AQAAAJRKcAIAAAAoleAEAAAAUCrBCQAAAKBUghMAAABAqQQnAAAAgFIJTgAAAAClEpwAAAAASiU4AQAAAJRq0uDEnLmL0lb7dWrfvbbfSJ8z+lykzxnnIqPPRfqccS4y+lykzxl9zjgXRfqc0eeMc1HUqX3PGjpzeihtAwAAAEw7yzoAAACAUglOAAAAAKUSnAAAAABKJTgBAAAAlEpwAgAAACiV4AQAAABQKsEJAAAAoFSCEwAAAECpBCcAAACAUglOAAAAAKUSnAAAAABKJTgBAAAAlEpwAgAAACiV4AQAAABQKsEJAAAAoFSCEwAAAECpBCcAAACAUglOAAAAAKUSnAAAAABKJTgBAAAAlGrS4MScuYvSVvt1at+9tt9InzP6XKTPGecio89F+pxxLjL6XKTPGX3OOBdF+pzR54xzUdSpfc8aOnN6KG0DAAAATDvLOgAAAIBSCU4AAAAApRKcAAAAAEolOAEAAACUSnACAAAAKJXgBAAAAFAqwQkAAACgVIITAAAAQKkEJwAAAIBSCU4AAAAApRKcAAAAAEolOAEAAACUSnACAAAAKJXgBAAAAFAqwQkAAACgVIITAAAAQKkEJwAAAIBSCU4AAAAApRKcAAAAAEolOAEAAACUSnACAAAAKNWkwYk5cxelrfbr1L57bb+RPmf0uUifM85FRp+L9DnjXGT0uUifM/qccS6K9DmjzxnnoqhT+541dOb0UNoGAAAAmHaWdQAAAAClEpwAaNBXv/rN8Jtb/iW8bevHwje/+e10b2d86Utnwpt+40PhD7Z/PHy7s08VPve5h8Ovv/GDYdfuB8OQuXQAAJTAsg6ABsTAxDOec2vl32jevMeGhx58ZWW73T7/hW+EuefeHr7xjW9V2hd+7xPCR//5ssp2uz300FfDeRf+Vfif/6lGQJYsflp436EVlW0AAJgufTtz4lvfGgqf//w3hr9wi70AU/d/fufDo4GJ6NSpr4b9Bz6VWu113Zs+NBqYiO772JfDP//Ll1KrvV7/q/80GpiIDh/5XPjkp76eWgAA3e2//uub4T/+44zZn32gb2ZO/OvJ/wp/fcfp8K79nwwnh7c/89mvVwIUj3jErPD0pz0qnH32Y8NLX/Ks8IqfnBsuOP/x6bcAGnPhC+4MH7v/y6lV9VOvOifc+mcXp1Z7xP9Y46yJT37qa+meql963fnh9/9fezMjx+Dt0591a/jSl/873VP1G296QfjNzS9MLQCA7vDf//3t8O6//3T46ztPh/d/4AuV70v/+Z//U/nZYx/7XeFZz3x0WPjCJ4WfXD0vLLv0meExj/nOys/oDT0fnDh077+FX7vug+Gf3v+FdM/knv99TwhvfcuLwvJlzwqzZqU7AcYR//P7oR++K7Uyj3zkI8InT74qPOUp353umbp3//1nwqUr/i61Mo973HeFT596VeU/3nb5y786Fa746YOplXn60x8VTg9eEWbPlpYIAChfnB3xOzd8JPz+H36sst2IRz3qO8La1z43bH7jC8KTn9y+72p0Ts9+84xRsstecU/4sR/f31RgIvrwR74cXvYT764MAB488ZV0L0B9v/+HH09bRTF6/8e7H0it9tj2h/enraJ4VeCWPx9MrfbY9gf1n+vf/u3h8M6/PpVaAADliDNK/+RPT4SB8/8yvPV3PtxwYCJ6+OFvVb7DDZz/zvC2rfeFb3/buo9u15MzJ44c/UJY/cq/D5/73DfSPa17/ONnh9v3LA0v+fE56R6ATByoP+fc28bNX/PMOY8OD524InzXd019GlZcnjZ/+D/Q8dZMLjjve8L9H/nJtsz4ijksFv7g36TWWD/0g08JR9+7MrUAAKbXmTPfDr98zdGwc1d7LgT95GVzwy1/cpGlHl2s54IT8Wrez/7cocoVy3pe9P1PDosXPSU87amPCk94wuzwla/8T/jc5x8OH/jgF8PRf/pC3YjZd3zHrPD2P1xSmfYDkPdbb/mX8Jtv+efUqu/2W5eGV75iXmq17vVveH+46f99LLXqu3vfS9sSTH3tL7y3ciViIv/0vpXhB3/gKakFADA94gyJl69+d2UJfz1xnPfjL54TBgYeF576lO8Os2bNCl/44jfCqVP/Fd59z2cqhRHqeeELnhgO3PXS8NSnWubRjXoqOHH4yOfD0pfsr0TR8uIa7Ndf873hdesWVNZKj+ff//2/wztuPlFZr/SlLxUTwMXEmXfd+ZKwfNkz0z3ATBc/a+YO3F6ZPTEizrb6yleKGaF/5IefFv7x4NTKb371q/8TnjnvttGkTlEMssbgat7Klz07/O0dP55arfnCF74Rnn3ObYUg79znPDac/sRXU6vqZ9ecG/7s5otSCwCg8+LF5NWXvyfsvesT6Z7MDy95aviNN70wLP2xp4fv/M76GQri78eZ9r99/YfDgb8bW1kt7uOev1teyR1Gd+mZV+T0J74WLrv8njGBiZde+sxw8oHLw29tfuGEgYnoSU96ZHjDr1w4/PhXjrnKGd/Er/qZ94SP3f8f6R5gposztfKBiWj9L5wXXv6y56RW1Xvf97lw7J//PbVaE/NJ5AMT0TUbLggX/ejTU6vqXfs+GQb/9T9TqzUxT0bt7LNfe8Pzwvc974mpVXXbX54cc/wAAJ103Zs/NCYwEZNb/n+3XBz+8eDLKjNIxwtMRPGicwxA7P/bl1RucZZF3vsOfz78r188PO4yWsrTM8GJ1/3S+ypX+/L+17oF4V1/85KmM+V/z/d8V7htz9Jw3a8/P91TFacPxanO3qhAVJswMv5n97r154cNv3RBuiczXtLMRsTPnNrf/+7vrmaYrn2u+Ng//KPjqdW8mDtj+9uLvx8/E1/zswNjnis+dscftzfhJ0AjPv2Zr1cCv3FJbu1sV6B/xb/5373ho6lVFS8wv/cfXhbW/NQ5TefdWvbSZ4UPHFkV5s19bLqn6uZbToS79n0ytegWPRGciKX19h/4dGpVxTfaH/y/RZV8Ea2Ib+zf/q2F4adfdU66pyqWDIxXC4GZLVYBqq0EdNmq54S5z3lMePHSZ4QLzn98urfq1tv+dUwAtVF/f89nwvEHipWD4n/AsezVT7z82eHZz3pMurfqHTc/WFkG0oo7956ufOnPu+rnz6skh4rP+cQnPjLdW/X2Pz4+ZsYaQCfEgOgf7TgeLvi+vw7Pmndb+NGl+8LiH70rPPkZe8JFL94X/vZdn3QBCfpY/Pv+lV99f2pVxRkS7/yLF4eFL3xSuqd5555zVvibv74kPPrRxUSYb/i194+b8JxydH1wIr5Jf3XTB1KrKq75/vObL2o5MDEiBih27fjhSrb9vE1v/FD45jd9GYeZ7PfrlPQcmVkQPzt++RfPr2yPmEpZ0XrlQ3/5F6vPFf9Tvvp/Lahsj5hKWdHa2SDxWH7xddX9xymTv3BVMTGwsqLAdPjUp78Wllx0V7j6l4+Ejx8vBmvjd8F/fO/nwqrVfx9++mf/IXz9642XEgR6R1zKEXMM5m36teeFH7u4uMS1FXHp6g2/86LUqnrgwf8Mf/KnD6YW3aDrgxMfve9L4V8+/KXUqvrVX3leZXpPO8QI2uY3vSC1qk6d/urwf4LFPwxg5ogD8tvf+VBqVT3vwicU8j+8+mcGKssh8uJyiWYj8DF/RMwjkRef5wXPz/I/xOUdcZlHXlwG0my97pgXI06Tzov5M845+6zUCuHq/3V+ZflKXm1AA6CdYmn4i5buCx/80BfTPeO77S8fquQgc7UT+s8tf1a88BLHe9dufF5qTd3a155X+M4T/WnNc1Kurg9O1F6xi7MlXre+eBVxqq58zfxw1lnFaT6dvFL4noOfDfMGbp/wtv7qw+nRMDPFJVb1/jbyt1hWuBNinoXaL75x1kR+nWNcBlFbfjgul7jjb5r77Ij5I2qnKdfmfojLO37mp4tL0OIykLgcpBn18mLUPtdznv2YsPonigk/4/KW+Hp0i7f+zofrvh/yt8nKpALdIX7+/dxV94aHThWrBU0kLvf97ev/JbWAdohLU+v9f5q/xdlNnfK1r30z7K+prHHlawbC4x5XvBA0FbNnP2LMODLO1Khd7kp5uj44sfdvi5laY8m+uKyjneIb9SWXFEuI1j5vOz388Lcq1Ucmun3hCzLkM7N94xuT/518bpwa1lMR8yv80c7iID7mYYj5GGrFWQb5gEXUTGLMmDci5o/Ii/klYp6JWr/8i9+btjK/v73x54pfOmJejLyYNyPmz6g1sqQkbyoJP9vtP75ypu77IX/7r/9qLScHML3uec9nwt/dXcwr1ojfveEjlRkXQHt861tDdf8/zd8+/enODeIP/sNnK2OkvOUvHft9aKpetmLsPu96l8SY3WLW0JnTXTsvLkbTz3rin1UiaSPeuOn5lUSW7RZL1lz/ux9Jraqf+elzp5zXop5PDf9hv+fgxFc849XLH7t47KABZorPff7hSb+wPuMZjw4vuWROarXHyYf+a8zSh1+99nnhd99aXKc44id+8p4x5a4+9E+rGkrctP3tHw+/uOFoalVd/9vfH379V78vtYouvmR/uPcf/y21qvkiHrz/FWHg3Mele8YXZxu8cfOx1Kr6oz9YXKl6VCt+9r7gRX8TPvLRbEndd33XrPCJf33VpCWbHzzxlbDpTcfCx4//x/COQjh/wePDYx9bnJk2VR869sVJyz7/wIueXHluoLvFz9v4udsKf+fQPjEw8Jd/VVzSWivOGn3F6nmp1V7xe8MHPlhc2vX1r7ymkg+rneJ3nJhkN18F6A2/cmH4v9f/QGpRpq4OTnzlK/8THv+UP0+tqj/ctqhytbLdtvz2h8NvbCl+cQeIAYCHTlxRqdJRzz3v+Wz48WUHUqsqLhX7k10/klr1xXwR3/v8OwpVOmJeiU+evKKyjKOev7rjdLj8Ve9JraprNnxvuOnGH0yt+uISlbPn316YthjzZXz61E9VvmjUs/tPToS169+bWlW/+eYXht94czFHT6133/OZcOnyv0stAIDmxQvE33z4ytRqr+e98M5w38e+nFqhUr1xz59dnFqUqauXdXzu82OnDj3pSfW/tE/V97R5qQjQH2J25/ECE1GrZUUnKh86nlbLisY8GOOVDx1Pq2VF7353c3kwAABqdWL2+ognP7n4/SbO1qU7TBqcmDN3Udpqv8n2/YTHj63IEUvoTaaVPn9tki/3wMw02fKqOLNiorKi430e1csXUS/XQ16rZUVr80XEPo+UD60n9rmVsqJxquRfKTsKAEzRtye+FjKuRsaBX/nKmbRV9YQGLlK3Mr5sVKf23Yt97vqcE9991p8WrtRt+Y2F4c1vfH5qtc+vv/GD4Xdv+GhqVZ17zuPCIzowtyTm0PjMZydOKPPYx3xnZT09zFQPP/zNSn6WicRSwM+c096/k/h584UvPhy+9c3qjKobf/cHwqt/5tz00/ri3/Qz5/1FZSnaiNivuBwk5mqoFcuHPveCv6p8xo2I5UMP3bM8tcb3xS9+Izz7nNsrCUNHLDjve8LHPrx6TAnQKJYP/f4f2ptaVatWPif8zV9fklrj+8QnvxbOnv+XhZKlP/SDTwlH37sytYpiJaJLXlpc4nLWWd8Vnv60ifNUNOuL//6N8OUvF79Y1HrKk7+77cmTgfb7zGe+Hr729Sy3WDPi7K4n1czwAloTE2JOlv8lXiQ5e95jU6u94v/r8f/3vP/5+s9VnrPd5sz9i/DZz2azJf73L18Qtv7eD6UWZerq4EQ0//y/qnyRH/ETL39OuPOvJv9S3ayr1r03vOPmrPTcE54wO3zpcz+TWu31rn2fCisve3dq1RdL+f31X7b/OKFXxMSPMQHkRH78kjnh3ftfmlrluvbX3h9+76aPpVbVbXt+LFxx+dmpldl47fvD1m3Fx77ztheHV6yem1oTi7kgYk6IvL9716Xh0pcUqw5FP7/2veHmW4qP/fsDy8IlL24s4W7McRFzXeT90/tWhh/8gaekVmb15e8Jd+4tPvb9h19eSVrXTr+66QPhht+7L7Xq+39v+6ExZVKB7vPne/41vPrKe1OrOfd/5CfD+Qu+J7WAqYizI5/xnL9Irfpiwv7T/3pFarXXbX/5UPipn/mH1Kr64NFV4fsXTp5gvBnxAvEz596WWlW/939/ILz+mgtTizJ1fSnRl15azMT/9+/5TGXKdDvFq5f7DhTr6r70Jc9KWwCTa7SsaDPlQ8fTaFnRZsqHjqfRsqIPnfrqmKolixc9pe2BCaC/vOqV57QUYPiZn27t94Du9OIfe8aYGaD7a8Zn7bD/wNhKcC+91LivW3T9zIl/OPRvYelLildPb/mTiyadZt2M+CZdseru1Kpq5ipms2JwJV++pp6YtT/O3oCZKi6v+Pd/n/jv5JGPfMSYpI1laqSsaLPlQ8fTSFnRZsqHjicGbxspK/qGX/9AuPFtxdkMt/75xeGnrjgntdrnv/7rm5MmAX3c475rwoSfQPf453/5UviRH3tX+HqDyzvOOfusyqysJz3Jkg5ol7iE83OfmziZd0xS+dSndqY4QRTHfHHsN2L+wOPC/R9Z3balHfE7TfysOXzk8+me6tLYOAur9gIT5ej6mRM/+iNPC3Nqci/85pZ/njRjfKPiH+IbN38wtaril9pll46dHt0ucUD1jGc8asKbwAQz3ezZk/+ddFNgIqq3jCA/yyB+3tTOOoiByLWvLSaebETtc8X/cP/wj46nVrV86Pa3Z+0olg999c8MpFZj4n/Wtc8V973jj6sJP6OYc2PXO4qzQeLr84rVY5e0tMNZZ8WcPPXfEyM3gQnoHS98wRPD/r99SUOf6XG2xD13LxOYgDaLsxbq/X+av3UyMBG96pXF7w0nBv8z3PLnxRmgU7Fv/6cKgYkoXkQRmOgeXR+ciBG63/qNF6ZWVUzWsulNH0qtqYlJMGPEPu+6X3u+L7ZA0yYrK1qvfGicmjxR+dDxTFZWtF750BgEaeWzbbKyov/frf8a/uM/igkqX7fu/LrJQAHqiUmBP3LsssrM2HolBONn13W//vzwgSOrwry5nUnIB5Tr53/uuZWZUXlxZuZkiTobEb+LXf3Lh1OrKgY5YzJMukfXByein/+5+eHC731CalW9bet9YxLCNeuOv/lEeOPmYpAjJnrxJgVaESPvE5UVrV8+dGz+iEZMVla0XvnQmBejFROVFY0zNrb9wf3p3qo462Xd2vNSC6AxscpRXLq7/fcXp3syR9/38vB/tix08Qj6WJxd/jtvfVFqVcWl8HHZ7GRLfScSZ3i+8qcPVqqQ5f3Gm16osleX6YngRIygv/0Pl4y5Chcz1r/pN44Vytw1In6Zjln1Yxb6uD0ifnn/oz9YUplmDdCKuGwiLp/Ii8srjh//SnjXvk+me6rilcLnf18x8NqMOBOi9vMqBiU++KEvhve+73PpnqqXv+w5Y65GNCMGNmoTVcWgRFwb+rH7/yPdUxWnSD7taZ2d+gn0r1iCuNajfDeDGeHyn5wXXraimKDyvo99Ofzgkr+t/NusGJCIeSYO3ZvlsogW/dBTmsrBxfToieBE9MNLnhre/oc/nFqZ/3P9h8OLFu2trCHKBxrG84/v/Vy46MX7KmX/aoMav/vWHwgrlsvWCrQuXtWrzSERl1f8yvBnTu1n1FRLXcblIHFZSF5cNvLGNxeTYEZTfa44qyyWOM77p/d/IfzWW/45tTK1s0cAABoRLxbvueXHwvdeUFwmG5d2xDHfr/zqB0aXy04kzib9zeHvKBe+4K/Dv3y4uIQ/Lou9850/bvlpF+r6ah21Yub5mIG+nrgGMUbaFi96WnjaU787POEJjwxf+cqZ8LnPPxw+8MEvhn37PxkeePA/06OL1v/CeZVZExKiAFMVy2qee95fFoIRcQbYt76V3RH/Yzz54OVTzkD94Y98ObzgRXemVtUjhnf57VzO4JgH475/WT3lz7dYHSRWCcmL+8wfZywfevjelakF0LxbbzsZ1rz6UGpVDR6/PJx7Tuuzv4DeEr9L/eiPvWtM/qwoLh+9+KKnVwoYnHvu48JTn/Koynefz3/hG+H06a+Gv3v3p8M97/lMePjhb6XfyMSiA++5e3l4wfOfmO6hm/RccCJ6+87j4Zf+99HCF/1WxS/Wb33L94dfe8P3CUwAbVOvrGheK+VDx1NbVrRWs+VDxxODELVlRWt1qnwoMHMITgDRZz/7cLjs8nvC+z/whXTP1MSyoX97548Xyq7TXXpmWUde/JJ9976XhrnPKWaqb1as0X/nX11SGSAITADtNNEyilbLh45noudqpXzoeOLn5ETPFcs+d6p8KAAws8TypYfuWV6Z4T7VsdorXzEvHH3vywUmulxPBieiWLLv+H2vCL/71heFxz1ubOKkicTM85vf9IJw4v5XhFUri2uoAdqhXlnREa2WDx1PvbKiI1otHzqeemVFR7xu/QLrNwGAtokXdGJhhGPv/4lwyYufke5t3A/94FPCe//hZeH2W5eOSVhO9+nZ4EQU36y/eu3zwif+9VXhz//04nDZqrnjVtqIX5iXL3tm2L3zR8InT74q/NbmF4bHPtYbFOiMGOEfLzFkq+VDx1OvrGgU+9Bq+dDx1CsrGsU+KB8KAHRCzBHx7v3LKkGKN256fnju/O9JPxkrzq7/lY3fG47848rKLRZWoDf0ZM6JiXzzm98O//a5h8OnP/31SlKUJz3xkeGZz3xMeMbTH1VJngIwXWJd7cc96c8LlYGe/rRHhc9+8qdSq32++MVvhKc+89ZCcspzz3lcGDz+itRqn1iWa+65t6dW1Que/6Twzx9YlVoArZNzAmhErMjxqU9/rTLu+9a3vh2e9azHhGfOeUx4/ONnW7Lfo/putB6v3j3rmY+pTOF5+cueHZYsfmoleiYwAUy3uJzi4h99empV/eLrOlNTOy4TeeELnpRaVde+/sK01V6xrOhz5xfXbL5xU3uSewIANCIu7Y9LaF/y43PCspc+K1z4vU+oVOMQmOhdRuwAHXT3/ksryx2+f+GTwo2/+wPhTde9IP2k/Q7f+7Lwmp8dCN///U+urM/8X+s6t8ziQ//0E+Gnrjg7/MCLnhz+7OaLw+U/OS/9BAAAmtd3yzoAAOhdlnUAzExmTgAAAAClEpwAAAAASiU4AQAAAJRKcAIAAAAo1aTBiTlzF6Wt9uvUvnttv5E+Z/S5SJ8zzkVGn4v0OeNcZPS5qBf73CnOc8a5KNLnjD5nnIuiTu1btQ4AALqGah0AM5NlHQAAAECpBCcAAACAUglOAAAAAKUSnAAAAABKJTgBAAAAlEpwAgAAACiV4AQAAABQKsEJAAAAoFSCEwAAAECpBCcAAACAUglOAAAA0JUGt60Os2bPrX+7+mB6FP2g94MTBzbVf6PWu120OwymX2tF/g9j/YF0JwAAwEzW5jFZftw1/9pj6d46dl1ZfZwgRV+YWTMnjm4J8ytv8k1hf7qrGSeOT/CHAQAAwMSmOCarKwYpBCh63gxd1rEnrBj+g2hq9sPg7vCWXWkbAACAKWh0TLYm7DtzOgzV3E7cuDD9PNl1pdntPa7PghMLw033j33jVm73bw6L06NG7Fy1OmxtYJ1HZVrRBVvCkdQGAACgnvaMyRbfeCj93vVhebovb2DDHWFo75rUqtr51qkt46dcM2fmxMBV4fDwm7sYYTsWNr6t3vSfU2HrRdU1TpOucwIAAGByDY7JYuDh8IZ5qTWBZdeHfWvTdnT0rnCX6ETPmnHLOgY23BRuWpQa0a6727fWCQAAgAm1c0w2f0HN8g561gzMOTEvrLw8/wbeE+60NgkAAGCatG9MNvDcBWkrOhY+buZEz5qRCTGLb+B65oVr7p18fRTQxZopadWmbNHKDQMANGbyMVljBh88nraiheH8gbRJz5mRwQmAomq26KkGKZQbBgCYXsXvXwvCeYITPWvS4MScufnFQO3VqX1Ptt9Wo2sfSv92QlnnYir0OaPPRb3Y56oYpGisis8Y45Qb9vpl9Lmo1/rsXBTpc6aTfe4U5znjXBTpc6bTfW7PjIeD4c7896/Zd4X5abOdvH5Fndr3rKEzp4fSdm+KU7dX7UmNWLbmjnDNhG/sg2H97CvDztQKizaHE/deFSb9WxgeeCzJlRNdt/d02LEsNYDu0+hnQ83fdkWjnwtJXM5RW9XHZwRAa2697WRY8+pDqVU1ePzycO45Z6UW0HWma0xWo/Y7WCw/2lCVD7rSDFvWEUuE5v4Ihq27rvk/AqCPVEpaHSpmjD66JdwwYc4I5YYBAFrTrjHZwXBD4TvYmvBmgYmeNnOCE5XkeBeHjUdTO1q0ObzBlU0gJsF9RzHp7c69xXrbAABMURvHZPuvrglw7L0+LE/b9KY+C04cCxsvyK5mFm6j04ySFqcOAX1q4JJwRX72xH0ng0pUAADN6vyYLC7nWJHPNbH2Zstp+8CMrNYR1yINCUwALVNuGABgKloekx3YVFxSGwMc25emBr1sRgUnYoK6OIiQJAWY1IXnCGACALTZlMZkMZF5fvaF2fB9pc+CEzEzbO5KZs3NVB9gXIP3hNtz6x8XLzg7bQEA0LgOjcnGVFhbE/YJTPSVGbmsA6DW4L67cv/ZLQxXrDDDCgCgK9QLTJyRALPfCE4ADP+H95r82sW1GyapzQ0AwLQQmJgxBCeAGS1me55V+x+epEoAAOUTmJhRBCeAGWD8klaFbM/+wwMA6A61gYmY/NL3tL4mOAEwrFLOyn94AADlqxeYkPyy7wlOAAz/h3eLEsMAAF3gYFgvMDEjCU7UdSpsvahm+ndhrVMIO1fV/Pyi3WEw/QzoNmNLWu1bm34UHd0S5l99MDUAAOga8XtaftzVwG39gfS79BTBCWBGWr79ULhpUWpEu64MS7adSg0AAGA6CU4AM9S8cM29N4d1qRUdufZikXYAACjBrKEzp4fSNkD/OLApzFq1JzXiso47wjX1FisWHhdN8NiJ1CRuWrf3dNixLDUAaNitt50Ma159KLWqBo9fHs4956zUAqAfmTkBzGzLrg8nblyYGlEsO7op7E8tAACg8wQngBlvYMMdxQSZYU9YIcktAABMG8EJgGFjEmSq4AEAANNGcAKgYmyCzPEreCg3DAAA7TRpcGLO3PylxPbq1L57bb+RPmf0uUifM53f79Kw4/7NYXFqRd1awcPrV6TPGecio89FvdjnTnGeM85FkT5n9DnjXBR1at+qdQD9qdFqHfWMqeARwuIbD4XDG+alVpw5cXHYeDQ1G7Foczhx71Wh2SIgADONah0AM5PgBAAAXUNwAmBmknMCAAAAKJXgBAAAAFAqwQkAAACgVIITAAAAQKkEJwAAAIBSCU4AAAAApRKcAAAAgD43uG11mDV7bv3b1QfTo8rT+8GJA5vGntiLdofB9OOJnQpbL8p+b/2BdDcdl//DcN4BAKCHGZN1rfy4a/61x9K9dey6svq4EoMU/Tlz4uiWcIM3dVc7cXyCPwwAAKC3GZP1phikKClA0bfLOna+tdFIHdNucHd4y660DQAA9CVjsm6zJuw7czoM1dxO3Lgw/TzZdWUpM1j6N+eESF1XqkwrumBLOJLaAABAnzIm6wqLbzyUAhHXh+XpvryBDXeEob1rUquqjMBSnwUn1oR1a9PmMJG6blBcQzbhOicAAKDHGZN1kxh4OLxhXmpNYNn1YV/udQtH7wp3TfML13czJy7bfnNYl7ZjpO41206lRverlz11yXj9r5d0pgsyrAIAADObMVlvmr+gZnnHNOvDZR1Lwxtya2aOXLsj7E/brSle+R/3jZmz/+qJ35xjf34wrB/erjer4Mi1Fw8/blPuGKqPnbVqT2rnVDKs5h8L0Ij0uTLmtjpsbTBiXviPvOHs3ABAfzIm68Ux2cBzF6St6Fj4uJkTUzewYUMWqQt7wlu6OVJXefNeGXamZn17wor4BzO4Oyxp9LFdY1645t6apCv3bw6L00+hY+pFsse9del/INNwDNX/mCf6XCl+GZjSuSocT2/+pw0ANMaYrJvGZI0ZfPB42ooWhvMH0uY06dOEmO2O1E2PdXvzg/hD4aZF6QdR/IPJJZKc+LHbGr7aCUTD/4H0/IC5+WOIsx1WqJwDAHSEMVmvjclOHM/PGlkQzhOcaI+eitQt2hxODL+hdyxL7Yo44yC3VmtEQ489Fm7fN/7xFqYwTfVm+jZ9JQ7wG1/K0J0aPYaD4YbCtMV6paXuCNdM839KAED/MCbrpTHZwXBn/qLVooEwP21Ol74NTvRMpG7tzWHo3qtC/e//S8Nl+YypTTz2yPGH0hYQp6XddH/twDvdxiwzOhY2vrYbg25tPoYDd+emI8Z91y8tNXZp1niPAwCoZUzWKwa3bSssVVl8+SXjHGPn9HFwoscidY2472TjA6ZmHgsz2cBV4XDtNLxeq8k91WNYtDKsnO7/fQCAGcGYrBeMnVH75kbKj7ZZXwcneiZSN4Fmyrk0+tjl2/NXQad4GzdqCL1kXrjmHcXZBzv39loSo+aOoZjwqBeMV1FkbljfS4EkAJhxjMnq6aYx2f6riwk+1+0tZ6bspMGJOXPzl+Laq1P7zu+3VyJ103Eu2k2fM/pc1Gt9rux34JJwRX73bYp0T+u5aOAYRkp+FspkHd0S5tcM+POJNadaJnR0TWWh3NZIAs/aW21Cz5FqIeNnxd65Kv78/LpfdMaWCcsUfjbOcXXq9Yum9b3RBs5FkT5nOtnnTnGeM85FkT5n2rnf2jHZZU9+Udpur06diyVb7ktb7Vf26zcmQfram2tyaYzVqT5PGpz4zOmjaav9OrXv4n57I1I3PeeivfQ5o89FvdZn56JbxdkSF4eNDR3q18OKBiuVjARbGqlU4r2RcS6K9DnTyT53ivOccS6K9DnT3v0Wx2Rn/vMlHRmTdepcHN58Ydpqv1JfvwObihesYqLP7UtTY3yd6nOfL+uo6rt1TkDnXXhO7y9Z6uljiIGJ2imGY6cxnsh90anMxphwZsfJyiyMwn/CAMC0MCbrMoO7w5L8rNYYmCh5yf6MCE70wzqndlJKFOoYvCfcngsCL15wdtoaq2v/hho4hoENd4wd1KdyWMWBf/vWGo6uqdy7Jt0T1StdGm/V5y1mjK4+tt4Uw8rx5Pc7USLQXVtGZ2EsvvFQ8XnlzwGADjMmyyv1+2QMTFywJRxJzcp3rS74LjRDghPxC+xNuUz2InVA0eC+u3If0AvDFSumP0PxVPXDMVTlM0ZPVOY0WXZ92Jcr2zVhMtNY/uvM6XC4hAzUADDTGZN1gXqBiS4pFT9jghOVTPbXZVfXWo3U9VKtWqBBwx/Sr8lP9V+7IVzTa5fR++EYRhy4O5s10eBxLF+Vmz0xXjLTGJhoYB0lANApxmSl6uLARDSDghPDlq2vidQ18qaeF87rXP6TUiglCplKcsTaD+lJBrDd9jfUyjF0s/17s/WPEy2vKRgYyMqoHh0MJ9ImANBljMkqpv37ZJcHJqKZFZwYE6nbFm5P2w1rU3lBYDodCxsvqLM+b/hWTI7YfR/SmX44hkacCg/kqnUdufbiusc85lb4zxYA6F7GZNOuNjBRyTfWfd8XZ1hwYlghUncsHGmgCsr8BbnEcUfvCneN+5cQs8s3Vp4O6C7VBIm9PKjvj2MAAGYAY7LpUy8w0aWz32decKImUteIgRUrs+nClauXY2vpV7OtFsveAT1i+EP6ll5PkNgPx1DxUPh4A19QAIBeZkw2PQ6G9T0SmIhmYHBiWCFS14CBq8IttbX089OJC5G5NWFdLms8p8LWi4rnqnb69c5VNT9XnpS2ixUfimvz8tUdYvnJ+VdPUOGhRjmln9p7DL1iTMnPhm5mjwBA1zMmm37x+2LNOZvstn68Eu0dMDODE61E6jbcURwI1JPW7lyWmkD3Wr79UPE/xF1XhiU9Vs6qH45hrLPD+c18UQEAepQxGUUzNDgxrNlI3bBKRtX7N+emE42ICeiGf6ZyBfSQ4f8Q7705rEutKCZfnM7o8NT1wzHUKmbjVioMAPqYMRk5s4bOnB5K2wD948CmMGvVSEnKuCTijnBNvf+pCo+LJnjsdOvgMcTyo6NVPiZZf9jIYxvaX6Gf41cVKexrgsc1Ii7BGZ3iufbmMNTDJVZhprj1tpNhzasPpVbV4PHLw7nnnJVaAPSjmTtzAiBadn04UVi/WD/BUlfrh2PIKSa82hNW9GEuDQAAigQngBlv7PrF4QFxjyVm7b1jOB4eGK9zA1eFN+ePpZlcGnF2hmAGAEDPEZwAGDYmuWQPVr/o+mNYdmkuP0a92R2xLnn1vuXbx+bSmDV7ddhaN6CRqwpUWN4CAECvEJwAqBibXLL3ql90+zEsDZfVzu4olKvK1yVfGnaMSXYVAxr5x4/cLg4bj6aHAADQkwQnAEaNHRD3XvWL7j6GMbM7JjJwVTh8ponHJ4sXnJ22AADoFYITAHlxQLy3WHN756q5vTWDoquPIc7uOB2Gavo3YvGN62sqc6THnzk9cV3zWIkjlg8bvh3eMC/dCQBAr1BKFACArqGUKMDMZOYEAAAAUKpJgxNz5ja52LcJndp3r+030ueMPhfpc8a5yOhzkT5nnIuMPhf1Yp87xXnOOBdF+pzR54xzUdSpfVvWAQBA17CsA2BmsqwDAAAAKJXgBAAAAFAqwQkAAACgVIITAAAAQKkEJwAAAIBSCU4AAAAApRKcAAAAAEolOAEAAACUSnACAAAAKJXgBAAAAFAqwQkAAACgVIITAAAAQKkEJwAAAIBSCU4AAAAApRKcAAAAAEolOAEAQOk+/Zmvh4/e9+XwyU9+Ld2TeeDB/6z87MtfPpPuAaDfzBo6c3oobQMAQCle90tHwtt3Hk+t+nbv/JHw2ivnpxYA/cTMCQAAAKBUghMAAABAqQQnAAAAgFIJTgAAAAClmjQ4MWfuorTVfp3ad6/tN9LnjD4X6XPGucjoc5E+Z5yLjD4X9WKfO8V5zjgXRfqc0eeMc1HUqX2r1gEAQOlU6wCY2SzrAAAAAEolOAEAQOme8+zHhBd9/5PDOWefle7JPO/CJ1R+9uQnPzLdA0C/sawDAICucettJ8OaVx9KrarB45eHc88ZG7QAoH+YOQEAAACUSnACAAAAKJXgBAAAAFAqwQkAAACgVIITAAAAQKkEJwAAAIBSCU4AAAAApRKcAAAAAEolOAEAAACUSnACAAAAKJXgBAAAAFAqwQkAAACgVIITAADQZoPbVodZs+eOe1t/ID0QgArBCQAAaItTYetF1eDD/GuPpfvq27lqJFCxOmwdTHc2IB/0EOAA+ongBAAATNWBTWHW7IvDxqOp3bBjYeMFc8OSbadSe2Injk8c9ADoVYITAAAwFTEwsWpPamTW7T0dhs7Uue1dkx7RpMHd4S270jZAnxGcAACAVg3uDktqAhOLbzxUCULsWJbuqLXs+hSouDmsS3dNprKc44It4UhqA/SbSYMTc+YuSlvt16l999p+I33O6HORPmeci4w+F+lzxrnI6HNRL/a5U9rX51Nh62uLAYNHP/EZ4fCGeak1maVhx5nT4cSNC1M7L8tf0UgOi1Z5zxXpc0afM85FUaf2PWvozOmhtA0AAKW69baTYc2rD6VW1eDxy8O555yVWl2kdjnH2pvD0PalqTFVMTgxcQ6LuGxk3NkZAD3Gsg4AAGjaqbD1rfnlHGvCvrYFJgBmHsEJAABo1uA94fb8rIa1l4blabM95oVr7q1JpHn/5rA4/RSg3whOAABAswYHC7km1q0yawJgKgQnAACgSYMPHk9b0cJw/kDaBKAlghMAANCkE8fz1TMWhPMEJwCmRHACAACmYtFAmJ82AWiN4AQAADTlVHjgvrQJQFsITgAAQFPmhfMuTJsAtIXgBAAATMXRwXAibQLQGsEJAABo0vwFC9NWdDw8MJg2AWiJ4AQAADRp4LkL0lZ0LHxccAJgSgQnAACgWQMDYXHajHbuPZi2AGiF4AQAADRr4JJwxaK0He3aFraaPQHQMsEJAABo2ryw8vJ83oljYePbzJ4AaJXgBAAAtGBgw4awLm1X7LoyrD+QtpswuG11WLLtVGoBzEyCEwAA0JKlYcfeNWm7auequU0EGg6G9bPnhvnXHkttgJlLcAIAAFq17Ppw4sb88o4Qjlx7cZg1e+74sygObKr8fNbsK8POdBfATCc4AQAAUzCw4Y4xAYoozqKoBiFqbqv2pEdM5FTYelHN712wJRxJP43G7P+i3UFOTqBXCU4AAMAUxQDF0JmbizkoGrIm7DtzOhzeMC+1AWYmwQkAAGiLpWHHmdNhaPhWbyZFZmG46f7q44bOXB+Wp3sBZrJZwx+KQ2kbAABKdettJ8OaVx9KrarB45eHc885K7UA6EeTzpyYM3dR2mq/Tu271/Yb6XNGn4v0OeNcZPS5SJ8zzkVGn4t6sc+d4jxnnIsifc7oc8a5KOrUvs2cAACga5g5ATAzyTkBAAAAlEpwAgAAACiV4AQAAABQKsEJAAAAoFSCEwAAAECpBCcAAACAUiklCgDAhN53+PPhl685klqd9eUvnwmnTn81taouOP/x4ZGPnJ5rau+5e3l4/ONnpxYA00VwAgCACe0/8OmwYtXdqdXfvvCZnw5PfvJ3pxYA08WyDgAAAKBUghMAAABAqQQnAAAAgFIJTgAAQJsNblsdZs2eO+5t/YH0wC7WvmM4GNbX+f1Zs1eHrYPpIQ0o9Oei3aGJXwV6gOAEAAC0xamw9aLq4Hn+tcfSffXtXNXaAL3z2nsM+6+OP78y7Ezt+rLnrN42hf3pJ007sKk9+wGmneAEAABMVWVQfHHYeDS1G3YsbLxgbliy7VRql6jNxxBnOqzYlRoAkxCcAACAqYiD+lV7UiOzbu/pMHSmzm3vmvSILtL2YzgYbijMvFgT9o3Zzx3hmoH0Y2DGmzX8wTCUtgEAYIyvfvV/wulPfC21+tuC874nfMd3zEqtBgzuDksu2BKOpGa0+MZD4fCGeak1kZiLobrkofHf6YBOHEMh2LEw3HT/1AMRcSbG6FKTRZvDiXuvCmN2WXjeGBC5PixPLaC7CU4AAEBLYq6E4jKIONNgx7LUaFAcdL8m3FRScKJDx5APEowXSGiS4AT0N8s6AACgFQd2FPMzrL256UF9NLDhjvJmTXToGAYfPJ62esl4VUV6o7oK9DrBCQAAaNqpsPWt+RwNa8K+7UvTdq9o/zHE2Q1xMF+o9HF0S5hfM9ivraQx8nuVWwtlQqtVQYZvhbwZe8KK0efL32qreIxUCxm/qki1Mkn96h+jzx1vVx9M91YVfqb8KUxIcAIAAJo1eE+4vTDj4NLeWz7QD8cwZXG2RKMVSmKwo7HypCPBFtVKoHGTBifmzF2UttqvU/vutf1G+pzR5yJ9zjgXGX0u0ueMc5HR5yJ9zrRlv4ODhQSS61ZVZxz01Hke5xhmjiyZ54hHP/EZNRVFTocTNy5MP432hBUTzoA4WZmFUZg50mE99Z5Leq3PzkVRp/YtISYAADSpkJyxTdUo8uJygLZddR8neWQnj6Gw7wYSYjby+Ib22URCzOLxT5I8s7DfYtLQ8V6rUiuwQA+yrAMAAJp04vjIoDZaEM5r06B+OvXDMbTuYLihEJiZpKrHsuvDvrVpe9jOvcXcEgVrb67MuBCYgOYITgAAwFQsGgjz02bP6odjaMaBu7PlHGs3NDRjZPmqNWlr2H0n6y/tiIGJnkuMCt3Bsg4AACZ07z/+W1j3uvelVn878o8vD094wuzUGk+s7pBLotjAsoXu09lj6PZlHfmlGA0vvxjcHZZcsCXl6cj2XVjWITgBLTNzAgCACX3ta98KDzz4nzPi9q1vfTsd9UTmhfMuTJs9qx+OoVWnwgP3pc1hR669OCv3OdFtNDABdILgBAAATMXRwXAibfasfjgGoKcJTgAAQJPmL8iXlzweHhi/tmTX6odjaM1D4eMjy1mAriE4AQAATRp47oK0FR0LH2/zwD7mMai7tKCV20W76yZv7PQx9IqYcyJW12juNkl1D6BpghMAANCsgYGwOG1GE5aW7Fb9cAwtOTucvyhtAl1DcAIAAJo1cEm4Ij/A3bUtbO21mQf9cAwtKSYDPXL8obQFlElwAgAAmjYvrLw8n7PhWNj4tvbNPFi+vd5SghZv45bx7OwxdLNCvo1dd4f9aRMoj+AEAAC0YGDDhrAubVfsujKsP5C2mzC4bXVYsu1Uak2vfjiGVgysWJlb0rInrLh6pixpge41a+jM6aG0DQAAYzz88LfCv33u4dTqrL+965Phf7++WErhH/5+RXjOcx6TWp01d/h5HvGIWanVgAObwqxVe1KjKiZYPLxhXmpN5GBYP/vKsHN4q/Hf6YAOHEMMVsy/9lhlOyzaHE6MO3ujqpHHN7TPwrEsDDfdf0e4ZpwnjklHV+xKjWENH3N8jr2XhqHtSyvNwn7W3jx6P9AcMycAAJjQox71HeHseY+dlttTnvLI9KyZZz3r0XUf24lbU4GJaNn14cSN+aURIRy59uJKlYxxZyDEwW2lkkZ1UF+6fjiGEcsuzc0EORY2XrCpZslGDKZU71u+/ebCrJHqMa8eJ+/GqbD1olT9pCaQA7SH4AQAAEzBwIY7xgzuo52r0mC29taFg9t+OIaqpeGytWmzYk9YUeh7PpiyNOy4f3OhYkk1oJF//Mjt4rCxOKEHaDPBCQAAmKI4uB86U7wS35g1Yd+Z0+Ut6cjph2OIlm8/FG5qtFTowFXh8JkmHp8sXnB22gLaRXACAADaYmnYkSpk1JuFkIm5EEaqaVwflqd7u0M/HMO8cM29w/3auya1ixbfuL6mv+nxw8eyrzDrokbMJ5HOTbcEYqCfSIgJAEDXuPW2k2HNqw+lVtXg8cvDueeclVoA9CMzJwAAAIBSCU4AAAAApRKcAAAAAEolOAEAAACUatLgxJy5TdbVaUKn9t1r+430OaPPRfqccS4y+lykzxnnIqPPRb3Y505xnjPORZE+Z/Q541wUdWrfqnUAANA1VOsAmJks6wAAAABKJTgBAAAAlEpwAgAAACiV4AQAAABQKsEJAAAAoFSCEwAAAECpBCcAAACAUglOAAAAAKUSnAAAAABKJTgBAAAAlEpwAgAAACiV4AQAAABQKsEJAAAAoFSCEwAAAECpBCcAAACAUglOAAAAAKUSnAAAAABKJTgBAAAAlEpwAgAAACiV4AQAAABQqkmDE3PmLkpb7depfffafiN9zuhzkT5nnIuMPhfpc8a5yOhzUS/2uVOc54xzUaTPGX3OOBdFndr3rKEzp4fSNgAAlOrW206GNa8+lFpVg8cvD+eec1ZqAdCPLOsAAAAASiU4AQAAAJRKcAIAAAAoleAEAAAAUCrBCQAAAKBUghMAAABAqQQnAAAAgFIJTgAAAAClEpwAAAAASiU4AQAAAJRKcAIAAAAoleAEAAAAUCrBCQAAAKBUghMAAABAqQQnAAAAgFLNGjpzeihtAwBAKQ783afCsX/+9/CRj3453PaXD6V7q35l44XhiU+YHV624jnh+d/3hHQvAP1EcAIAgNK97peOhLfvPJ5a9e3e+SPhtVfOTy0A+ollHQAAAECpBCcAAACAUglOAAAAAKWaNDgxZ+6itNV+ndp3r+030ueMPhfpc8a5yOhzkT5nnIuMPhf1Yp87xXnOOBdF+pzR54xzUdSpfUuICQBA6STEBJjZLOsAAAAASiU4AQAAAJTKsg4AAEr3rn2fCh/80BfDRz/25fBXf30q3Vu14ZcuCE98wiPDqpc/J7zwBU9M9wLQTwQnAADoGrfedjKsefWh1KoaPH55OPecs1ILgH5kWQcAAABQKsEJAAAAoFSCEwAAAECpBCcAAACAUglOAAAAAKUSnAAAAABKJTgBAAAAlEpwAgAAACiV4AQAAABQKsEJAAAAoFSCEwAAAECpBCcAAACAUglOAAAAAKUSnAAAAABKJTgBAAAAlEpwAgAAACiV4AQAAABQqkmDE3PmLkpb7depfffafiN9zuhzkT5nnIuMPhfpc8a5yOhzUS/2uVOc54xzUaTPGX3OOBdFndr3rKEzp4fSNgAAlOrW206GNa8+lFpVg8cvD+eec1ZqAdCPLOsAAAAASiU4AQAAAJRKcAIAAAAoleAEAAAAUCrBCQAAAKBUghMAAABAqQQnAAAAgFIJTgAAAAClEpwAAAAASiU4AQAAAJRKcAIAAAAoleAEAAAAUCrBCQAAAKBUghMAAABAqQQnAAAAgFIJTgAAAAClEpwAAAAASiU4AQAAAJRKcAIAAAAoleAEAAAAUKpJgxNz5i5KW+3XqX332n4jfc7oc5E+Z5yLjD4X6XPGucjoc1Ev9rlTnOeMc1Gkzxl9zjgXRZ3a96yhM6eH0jYAAJTq1ttOhjWvPpRaVYPHLw/nnnNWagHQjyzrAAAAAEolOAEAAACUSnACAAAAKJXgBAAAAFAqwQkAAACgVIITAAAAQKkEJwAAAIBSCU4AAAAApRKcAAAAAEolOAEAAACUSnACAAAAKJXgBAAAAFAqwQkAAACgVIITAAAAQKkEJwAAAIBSCU4AAAAApRKcAAAAAEolOAEAAACUSnACAAAAKJXgBAAAAFAqwQkAAACgVJMGJ+bMXZS22q9T++61/Ub6nNHnIn3OOBcZfS7S54xzkdHnol7sc6c4zxnnokifM/qccS6KOrXvWUNnTg+lbQAAKNWtt50Ma159KLWqBo9fHs4956zUAqAfWdYBAAAAlEpwAgAAACiV4AQAAABQKsEJAAAAoFSCEwAAAECpBCcAAACAUglOAAAAAKUSnAAAAABKJTgBAAAAlEpwAgAAACiV4AQAAABQKsEJAAAAoFSCEwAAAECpBCcAAACAUglOAAAAAKWaNXTm9FDaBgCAUuz44wfC3e/+dPjkp74WPvDBL6Z7q176kmeGxzzmO8Mvvu788OKlz0j3AtBPzJwAAKB0//LhL4W/vvP0mMBE9Hfv/nTlZ6dOfzXdA0C/EZwAAAAASiU4AQAAAJRKcAIAAAAo1aTBiTlzF6Wt9uvUvnttv5E+Z/S5SJ8zzkVGn4v0OeNcZPS5qBf73CnOc8a5KNLnjD5nnIuiTu1btQ4AAEr3ul86Et6+83hq1bd754+E1145P7UA6CeWdQAAAAClEpwAAAAASmVZBwAApfvofV8Op09/Ndz7j/8Wbnjbfeneqp1v/+HwjKc9Kjz/+U8Mz37WY9K9APQTwQkAALrGrbedDGtefSi1qgaPXx7OPees1AKgH1nWAQAAAJRKcAIAAAAoleAEAAAAUCrBCQAAAKBUghMAAABAqQQnAAAAgFIJTgAAAAClEpwAAAAASiU4AQAAAJRKcAIAAAAoleAEAAAAUCrBCQAAAKBUs4bOnB5K2wAAUNc3v/nt8LnPfyO1OufOvZ8Iv7ThSGpVve/QyjB37mNSqzNmzQphzjMenVoATDfBCQAAJnX/x/8jfO/z70it/vOYx3xn+OqXX51aAEw3yzoAAACAUglOAAAAAKUSnAAAAABKNWlwYs7cRWmr/Tq1717bb6TPGX0u0ueMc5HR5yJ9zjgXGX0u6uS+yfTae6MX33P6XKTPGeci04t9lhATAIBJSYgJQCcJTgAAMKnPfPbr4bo3fSi1+s8jH/kdYcf2JakFwHQTnAAAAABKJSEmAAAAUCrBCQAAAKBUghMAAABAqQQnAAAAgFIJTgAAAAClUq0DAIC2+MQnvxbetLn7yo1+53c+Irzjj38ktQDoRoITAAC0xYc/8uXwghfdmVrdY/bsR4T//urPpRYA3ciyDgAAAKBUghMAAABAqQQnAAAAgFIJTgAAAAClEpwAAAAASqVaBwAAbfHNb347fPGL/51a3eXpT39U2gKgGwlOAAAAAKWyrAMAAAAoleAEAAAAUCrBCQAAAKBUghMAAABAqSYNTsyZuyhttV+n9t1r+430OaPPRfqccS4y+lykzxnnIqPPRd3S529841vh/o//R0O3pz5zed37a2/N8t7IOBdF+pzR54xzUdSpfavWAQDAtPngh74YfmDx36bW1M2aFcK3//vnUwuAXmVZBwAAAFAqwQkAAACgVIITAAAAQKkEJwAAAIBSCU4AAAAApVKtAwCAafOJT34tvG3rfanVHlt/74fSFgC9SnACAAAAKJVlHQAAAECpBCcAAACAUglOAAAAAKUSnAAAAABKJTgBAAAAlEpwAgAAACiV4AQAAABQKsEJAAAAoFSCEwAAAECpBCcAAACAUglOAAAAAKUSnAAAAABKJTgBAAAAlEpwAgAAACjVpMGJOXMXpa3269S+e22/kT5n9LlInzPORUafi/Q541xk9LlInzP6nHEuivQ5o88Z56KoM/sO4f8HqptNUMXQBMEAAAAASUVORK5CYII=;" vertex="1" parent="1">
          <mxGeometry x="1270" y="270" width="604.14" height="420" as="geometry" />
        </mxCell>
        <mxCell id="VBmumWGFU4Ihw89p5VGh-3" value="Circuit Symbol Editor View" style="text;strokeColor=none;align=center;fillColor=none;html=1;verticalAlign=middle;whiteSpace=wrap;rounded=0;fontSize=30;fontStyle=1" vertex="1" parent="1">
          <mxGeometry x="361" y="220" width="460" height="40" as="geometry" />
        </mxCell>
        <mxCell id="VBmumWGFU4Ihw89p5VGh-4" value="Schematic Editor View" style="text;strokeColor=none;align=center;fillColor=none;html=1;verticalAlign=middle;whiteSpace=wrap;rounded=0;fontSize=30;fontStyle=1" vertex="1" parent="1">
          <mxGeometry x="1342.07" y="219" width="460" height="40" as="geometry" />
        </mxCell>
        <mxCell id="VBmumWGFU4Ihw89p5VGh-5" value="&lt;font style=&quot;font-size: 16px;&quot;&gt;The resistor directly references the subcircuit parameter.&lt;/font&gt;" style="shape=callout;whiteSpace=wrap;html=1;perimeter=calloutPerimeter;direction=west;fillColor=#f8cecc;strokeColor=#b85450;size=30;position=0.33;" vertex="1" parent="1">
          <mxGeometry x="1410" y="519" width="170" height="120" as="geometry" />
        </mxCell>
        <mxCell id="VBmumWGFU4Ihw89p5VGh-6" value="&lt;font style=&quot;font-size: 16px;&quot;&gt;The capacitor&#39;s value is calculated, based on the resistor parameter and cutoff frequency parameter.&lt;/font&gt;" style="shape=callout;whiteSpace=wrap;html=1;perimeter=calloutPerimeter;direction=south;fillColor=#f8cecc;strokeColor=#b85450;size=40;position=0.56;base=29;position2=0.64;" vertex="1" parent="1">
          <mxGeometry x="1560" y="289" width="270" height="125" as="geometry" />
        </mxCell>
        <mxCell id="VBmumWGFU4Ihw89p5VGh-7" value="Subcircuit Example:&amp;nbsp;&lt;span style=&quot;background-color: transparent; color: light-dark(rgb(0, 0, 0), rgb(255, 255, 255));&quot;&gt;Parameterized RC Low-Pass Filter&lt;/span&gt;" style="text;strokeColor=none;align=center;fillColor=none;html=1;verticalAlign=middle;whiteSpace=wrap;rounded=0;fontSize=50;fontStyle=1" vertex="1" parent="1">
          <mxGeometry x="320" y="110" width="1480" height="90" as="geometry" />
        </mxCell>
        <mxCell id="VBmumWGFU4Ihw89p5VGh-10" style="edgeStyle=orthogonalEdgeStyle;rounded=0;orthogonalLoop=1;jettySize=auto;html=1;exitX=1;exitY=0.5;exitDx=0;exitDy=0;entryX=0;entryY=0.5;entryDx=0;entryDy=0;strokeWidth=7;startArrow=classic;startFill=1;fillColor=#dae8fc;strokeColor=#6c8ebf;" edge="1" parent="1" source="VBmumWGFU4Ihw89p5VGh-9" target="VBmumWGFU4Ihw89p5VGh-8">
          <mxGeometry relative="1" as="geometry" />
        </mxCell>
        <mxCell id="VBmumWGFU4Ihw89p5VGh-11" value="Press F9 to switch&lt;div&gt;between the two views.&lt;/div&gt;" style="edgeLabel;html=1;align=center;verticalAlign=middle;resizable=0;points=[];fontSize=16;" vertex="1" connectable="0" parent="VBmumWGFU4Ihw89p5VGh-10">
          <mxGeometry x="-0.0143" y="-1" relative="1" as="geometry">
            <mxPoint y="1" as="offset" />
          </mxGeometry>
        </mxCell>
      </root>
    </mxGraphModel>
  </diagram>
</mxfile>
